<svg xmlns="http://www.w3.org/2000/svg" viewBox="0 0 1517.26 788.98"><defs><style>.cls-1{stroke:#000;stroke-miterlimit:30;}</style></defs><g id="Layer_2" data-name="Layer 2"><g id="Layer_1-2" data-name="Layer 1"><path class="cls-1" d="M923.37,1.05,984.8,122.32,597.55,785.91q-27.85-58-55.7-116Z"/><path class="cls-1" d="M1374.29,785.67H573.58q-14.39-56.16-28.75-112.32l764.67-.78Q1341.9,729.12,1374.29,785.67Z"/><path class="cls-1" d="M1374.29,785.67,1007,144.54l-54.09,96.34,294.58,544.79Z"/><path class="cls-1" d="M1007,144.54q29.68,51.84,59.39,103.68L867.16,591.55H756.06Q881.54,368.05,1007,144.54Z"/><path class="cls-1" d="M1516.37,586.32l-68.88-111.1-626-.29q-31.75,58.3-63.52,116.6Z"/><path class="cls-1" d="M466.53,4.3l-78.39,105q92.72,338.19,185.44,676.38l122.72-3.48Z"/><path class="cls-1" d="M463.25,4.3l43.63,135.9L24.44,787.75.53,651.08Z"/></g></g></svg>