<svg id="Layer_1" data-name="Layer 1" xmlns="http://www.w3.org/2000/svg" viewBox="0 0 841.92 596.16"><defs><style>.cls-1{fill:#383838;}.cls-2{fill:#2d2d2d;}.cls-3{fill:#424242;}.cls-4{fill:#474747;}.cls-5{fill:#3c3c3c;}.cls-6{fill:#242424;}.cls-7{fill:#252525;}.cls-8{fill:#262626;}.cls-9{fill:#4d4d4d;}.cls-10{fill:#333;}.cls-11{fill:#2b2b2b;}.cls-12{fill:#2a2a2a;}.cls-13{fill:#373737;}</style></defs><path class="cls-1" d="M807.84,596.16H805c-1.82-1.35-2.05-3.52-2.74-5.44-3.42-9.48-6.76-19-10.22-28.45-.08-.23.75-.69-.14-.57,3,8.45,6.06,17,9.08,25.51q1.14,3.22,2.32,6.45a2.34,2.34,0,0,1-.22,2.5h-2.88c-2.2-2-2.4-4.95-3.39-7.52-3.67-9.52-6.75-19.25-10.4-28.77-.58-1.5-.86-3.11-1.37-4.08,4.25,12.28,9,24.94,13.36,37.74a2.72,2.72,0,0,1-.12,2.63h-2.88c-2.17-1.68-2.45-4.35-3.24-6.66-4.63-13.48-9.65-26.83-14.2-40.34,0-.12-.3-.16-.21-.37.29.21-.15.28-.09.44,3.76,9.14,6.66,18.6,10.08,27.86,2.06,5.61,3.75,11.35,6.16,16.84a2.3,2.3,0,0,1-.42,2.23H678.72c-.74-1-.43-1.94-.06-2.93,4.11-11.08,7.8-22.31,11.92-33.38,1.36-3.64,2.56-7.34,3.9-11,.18-.28-.33-.14,0-.05.06,0,.07.06,0,.13-3.06,8-5.83,16.12-8.67,24.21-2.44,6.94-5,13.83-7.34,20.8a4,4,0,0,1-1.69,2.21h-2.88c-1.07-1.55,0-2.86.47-4.24,4.14-12.26,8.68-24.37,12.91-36.59,0,0,.07,0,.11,0,.14-.29-.42,0-.13.08s0,.19,0,.26c-2,5.34-3.88,10.72-5.79,16.08-2.39,6.69-4.74,13.4-7.16,20.08-.58,1.59-.84,3.28-2.31,4.37h-2.88c-.8-1.07-.3-2,.07-3.14,3.06-9.07,6.48-18,9.54-27.09.45-1.34,1-2.66,1.48-4,.1-.3-.42,0-.1,0,.09,0,.11.06.06.19Q674.43,578,668.84,594a6.14,6.14,0,0,1-1.64,2.2h-2.88c-1.23-1.8,0-3.45.59-4.94,2.86-7.69,5.47-15.48,8.42-23.69-3.11,9.15-6.37,17.7-9.27,26.37a5.84,5.84,0,0,1-1.66,2.26h-2.88a2.37,2.37,0,0,1-.21-2.66c2.38-6.19,4.45-12.49,6.27-17.49-1.73,5.19-4.17,11.51-6.3,17.94a5.11,5.11,0,0,1-1.68,2.21h-2.88a2.55,2.55,0,0,1-.1-2.54c1.33-4.28,3.1-8.41,4.41-12.66,0,0,0,.06,0,.1q-2.24,6.2-4.37,12.38a5.7,5.7,0,0,1-1.85,2.72h-2.88a2.12,2.12,0,0,1-.32-2.18c.77-2.31,1.61-4.58,2.14-6-.43,1.24-1.31,3.27-1.9,5.4a5.14,5.14,0,0,1-1.84,2.81h-2.88a2.27,2.27,0,0,1-.09-2.76,4.77,4.77,0,0,1-1.83,2.76H629.76a2.8,2.8,0,0,1-1-2.75c0-.77-.05-1.53-.05-2.3-.17-8-.19-16,0-24.05,0-.76,0-1.53,0-2.3-.17-8-.19-16.06,0-24.09,0-.77,0-1.54,0-2.31-.16-8-.23-16.06,0-24.08,0-.62,0-1.24,0-1.85-.24-8-.2-16.06,0-24.08,0-.77,0-1.54,0-2.31q-.27-12,0-24.05c0-.75,0-1.5,0-2.25-.28-4.92-.07-9.85-.13-14.77,0-1.35,0-2.7,0-4.05-.18-3.09-1.15-4.07-4.22-4.32a9.79,9.79,0,0,1-1.89-.13c-1.1-.35-2.4-.6-2.16-2.26a4,4,0,0,1,1.13-1.4c.78-.16,1.57-.23,2.36-.4,4.36-1,4.73-1.39,4.82-5.8.1-4.77-.33-9.55.51-14.29.25-1.38-1.36-2-1.38-3.32,1.56-8.57.81-17.23.83-25.84.1-30.4,0-60.8,0-91.2a15.17,15.17,0,0,1,.4-4.75c.2-1.71,1.55-1.34,2.58-1.35a98.07,98.07,0,0,1,26.76,3.68A103.79,103.79,0,0,1,699,310.9c18.47,15.84,30.72,35.58,35.95,59.48a38.92,38.92,0,0,1,.48,4.83c.14,1.6.24,3.22.48,4.82-1.17-8.66-.73-17.36-.75-26q-.06-32,0-64.06c0-3.91.17-4.15,4-4.06a104.24,104.24,0,0,1,54.38,16.54,107,107,0,0,1,38.68,42.66,95.63,95.63,0,0,1,8.12,22c1,4.4,1.09,8.92,1.38,13.41.07,1.17-.28,2.38.23,3.53V596.16H829a4.76,4.76,0,0,1-1.85-2.83c.38.87.81,1.86-.07,2.83h-2.88c-2.34-1.73-2-4.77-3.34-7a5.28,5.28,0,0,1-.64-2c-.11-.3-.44.12-.19-.08,0,0,.07,0,.1.08.89,2.27,1.71,4.56,2.48,6.88a2.1,2.1,0,0,1-.33,2.14h-2.88c-1.63-1.1-1.85-3-2.47-4.6-1.39-3.64-2.53-7.37-3.95-10.92a.23.23,0,0,0,.12.12c1.4,4.16,2.89,8.23,4.38,12.31.36,1,.94,2.07,0,3.09h-2.88c-1.81-1.2-1.91-3.29-2.58-5.07-2-5.38-3.91-10.82-5.81-16.25,2.18,6.22,4.37,12.45,6.63,18.64a2.44,2.44,0,0,1-.16,2.68h-2.88c-2.13-1.91-2.37-4.68-3.28-7.16-2.47-6.78-5.14-13.49-7.07-20.46,0-.13-.35,0-.36-.22.32.16.09.47.16.65,3.07,8,5.79,16.18,8.65,24.29A3,3,0,0,1,807.84,596.16Z"/><path class="cls-2" d="M841.92,384a7.78,7.78,0,0,1-.46-2.34A95.67,95.67,0,0,0,833,349.82a106.19,106.19,0,0,0-41.29-47.07,104.83,104.83,0,0,0-43.41-15,57.44,57.44,0,0,0-9.08-.65c-2.27.09-2.77.6-2.88,2.9,0,1,0,1.92,0,2.88q0,43.56,0,87.11a9,9,0,0,1-.23,3.29c-.7-.29-.6-.84-.64-1.27a104.84,104.84,0,0,0-28.72-62,108.13,108.13,0,0,0-21.54-17.49,104.69,104.69,0,0,0-40.62-14.47,82.55,82.55,0,0,0-14.82-1,3.11,3.11,0,0,1-2.5,1.16c-18.78,0-37.58.4-56.35-.1-20.45-.55-37.94-13.93-44.77-33.23a46.67,46.67,0,0,1-2.22-7.58c.58-1.08,1.63-1,2.64-1.09.76-.05,1.44-.37,1.44-1.25s-.67-1.19-1.42-1.29c-1-.14-2,.08-3-.41-.89-1.35-.83-2.93-.92-4.39-.34-5.83-.31-11.65,1.19-17.36.67-.48,1.25-1.14,2.27-.85.82.24,1.69.07,1.87-.9.22-1.13-.67-1.47-1.58-1.62a2.05,2.05,0,0,1-1.81-1.59c2-4.35,3.52-8.92,6-13.05,8.16-13.36,20.16-20.82,35.45-23.3a41.64,41.64,0,0,1,6.69-.46q81.32,0,162.63,0c10.14,0,20.28,0,30.43,0,4.79,0,9-2.17,13.19-4.07a103.75,103.75,0,0,0,47.83-43.06,99.82,99.82,0,0,0,13.46-41.37c.08-.9-.2-2.44,1.65-1.48Z"/><path class="cls-2" d="M0,528V159.36c1-1.26,2.35-1.21,3.71-1.21,7.76,0,15.51,0,23.27,0H95.82c1,0,2.08,0,3.11.05,1.84.15,3,1.14,3,3,.08,8.38.64,16.82-.27,25.14-.5,4.63-1,9.3-.48,13.8,1.63,13.15,1.08,26.34.53,39.45-.41,9.64-1.22,19.33-.49,28.89,1.56,20.6,1.12,41.21.5,61.76-.52,17.48-.3,34.94-.68,52.41-.13,6.14,1.47,12.18,1.08,18.34.06.8.16,1.6.29,2.39,0,2.18.4,4.32-.65,6.49-.61,1.27-.18,2.95,0,4.45a38.39,38.39,0,0,1,.28,4.15v77.38a23.76,23.76,0,0,1-.08,2.39,5.69,5.69,0,0,0,0,.83c.23,2.12-.08,4.29.47,6.4a1.13,1.13,0,0,1-.21,1c-.22.64-.76.89-1.31,1.21-1.74,1-1.8,1.86-.18,3.14a7.45,7.45,0,0,1,1.35,1.58c.2,6.29-.17,12.56-.44,18.82-.06.67.11,1.39-.74,1.81-1.45.72-1.67,1.81-.62,3.05a2.43,2.43,0,0,1,.39,1.78c-2.46,11.42-7.2,21.65-15.86,29.75a48.43,48.43,0,0,1-32.41,13.45c-13.19.46-24.59-3.79-34.67-12.08a45.3,45.3,0,0,1-6.27-6.87,6.78,6.78,0,0,0-3.12-4.51A47.41,47.41,0,0,1,.39,532.69,24.61,24.61,0,0,0,0,528Z"/><path class="cls-1" d="M417.6,596.16H374.4c-12.44-3.73-22.13-11.81-31-20.64a105.39,105.39,0,0,1-30.49-59.84,13.23,13.23,0,0,1,.16-3.56,1.72,1.72,0,0,1,.3-1.09c1.08-1.42.95-2.61-.78-3.37a2.78,2.78,0,0,1-1.43-1.47,38.88,38.88,0,0,0,.75-7.14c-.12-1.6-.1-3.19-.1-4.79q0-50.86,0-101.72a107.23,107.23,0,0,1,98-106.34,47.75,47.75,0,0,1,6-.35c2.51.11,2.93.5,3,2.93.05,1,0,2.08,0,3.12q0,52.89,0,105.8c0,3.75-.11,7.51,1.18,11.13-1.58,1.1-1.73,2.51-1.48,4.38a91.06,91.06,0,0,1,.3,12.69c-.06,5.85,1.28,6.19,5.51,6.63a6.79,6.79,0,0,1,1.6.23,4.33,4.33,0,0,1,1.17,1.35c.37,1.51-.76,1.9-1.79,2.29a6.67,6.67,0,0,1-1.9.18c-3.49.25-4.46,1.21-4.55,4.76-.16,6.14.15,12.27-.16,18.4,0,.76,0,1.51,0,2.26.17,8,.19,16,0,24.05,0,.77,0,1.54,0,2.31.16,8,.23,16.06,0,24.08,0,.62,0,1.24,0,1.85.24,8,.2,16.06,0,24.08,0,.77,0,1.54,0,2.31.17,8,.19,16.06,0,24.09,0,.77,0,1.54,0,2.31q.27,12,0,24c0,.77,0,1.54,0,2.31A2.82,2.82,0,0,1,417.6,596.16Z"/><path class="cls-1" d="M100.77,401.3a9.3,9.3,0,0,1-.44-3.31q0-4.08,0-8.16,0-112.35,0-224.72c0-1.12,0-2.24-.06-3.36-.14-1.72-.64-2.19-2.4-2.35-.71-.06-1.44,0-2.16,0H0V0H105.12A6.6,6.6,0,0,1,107,3a109.63,109.63,0,0,0,21.6,37.29A110.19,110.19,0,0,0,146,55.66,99.81,99.81,0,0,0,175.48,70.3a106.39,106.39,0,0,0,28,4.8c4,.15,4.44.49,4.58,4.62,0,8.57,0,17.13,0,25.69,0,12-3.39,23.1-10.73,32.69-9.41,12.29-21.78,19.79-37.25,21.89a25,25,0,0,1-3.35.09H110.42c-1,0-1.92,0-2.88,0-4.52.08-5.45,1-5.53,5.54,0,1.2,0,2.4,0,3.6V396a33.27,33.27,0,0,1-.06,3.6C101.86,400.33,102,401.31,100.77,401.3Z"/><path class="cls-3" d="M206.85,79.23c-.41-1.83-1.28-2.94-3.42-2.93-6.74,0-13.32-1.35-19.91-2.6-7.91-1.5-15.28-4.51-22.57-7.82-11-5-20.28-12.27-29-20.47a93.58,93.58,0,0,1-14.67-18.22A102.35,102.35,0,0,1,106,3.73,15,15,0,0,1,105.12,0H366.24c.78.83,1.83.49,2.72.49,16,0,32-.13,48,.1,1.29,0,2.57-.49,3.88-.29s2,1.45,2.44,2.6a11.59,11.59,0,0,0,3.13,4.7,28.69,28.69,0,0,1-2.07-5.08,2.62,2.62,0,0,1,.24-1.43A1,1,0,0,1,425,.48c1.65-.32,3.29-.6,4.86.3,2.27,2.61,2.68,6,3.93,9.09s1.91,6.38,4.18,8.22c-1.92-4.61-3.72-9.91-5.43-15.23a2.72,2.72,0,0,1,.28-2.07c1.85-.7,3.69-1.26,5.36.39,2.7,3.69,3.33,8.24,5,12.36,1.32,3.26,2.44,6.6,3.57,9.93a12.53,12.53,0,0,0,3,5.23c-2.84-7.93-5.6-15.83-8.44-23.71-.48-1.33-1.24-2.66-.2-4.07a5.87,5.87,0,0,1,4.35-.44c1.8,1.3,2.36,3.34,3,5.28q5.12,14.58,10.33,29.11a12.75,12.75,0,0,0,2.85,4.83c-4.4-12.31-9-24.86-13.25-37.52a3.12,3.12,0,0,1,.22-1.09,1,1,0,0,1,.51-.55c1.65-.35,3.31-.75,4.85.34,1.58,1.79,2.16,4.07,2.92,6.23,4.43,12.51,8.83,25,13.3,37.52a13.4,13.4,0,0,0,3.19,5.57c.39.7.51.08.33.34-.06.09-.13.08-.18,0-2.08-5-3.76-10.13-5.57-15.22-3.57-10-7-20.07-10.65-30.07-.49-1.38-1.38-2.78-.5-4.35a5,5,0,0,1,5.42.47,13.65,13.65,0,0,1,2.39,4.92q8.31,23.51,16.71,47c.41,1.16,1.48,2.51-.2,3.62a104.57,104.57,0,0,1-52,20.08,103.42,103.42,0,0,1-11,.61q-99.48-.06-199,0C215,77.52,210.74,77,206.85,79.23Z"/><path class="cls-4" d="M313.9,512.21a79.6,79.6,0,0,0,3.9,19,106,106,0,0,0,53.4,62.92,9.79,9.79,0,0,1,3.2,2.07H0V528a15.78,15.78,0,0,1,.87,4,62.35,62.35,0,0,0,7.48,23.73A13.74,13.74,0,0,1,9,557.2a4.21,4.21,0,0,1,0,.71c-.73,3.13-.72,3.14,2.32,3.61.23,0,.45.13.69.17a7.06,7.06,0,0,1,1.77,1.59c14.2,16.53,38,21.2,57.45,12.07,12.33-5.78,20.55-15.42,25.28-28.11a56.47,56.47,0,0,0,2.17-7.1,5.15,5.15,0,0,1,1.12-2.6c2-1.62,2.05-3.59,1.07-5.76a5.91,5.91,0,0,1-.52-3.48c.5-5.37.29-10.76.44-16.13a7.92,7.92,0,0,0,.54-5.81l-.54-.44a18.51,18.51,0,0,1,0-6.72h0c.81-1.17,2.06-1.22,3.29-1.22,4.87,0,9.75,0,14.62,0q30.83,0,61.64,0c3.06,0,6.17,1,9.1.29a22.84,22.84,0,0,1,7.14-.75c1.44,0,2.88,0,4.32.08,2.79.1,3.91-.92,4.19-3.74a37.86,37.86,0,0,0,.09-3.84V401.24a16.23,16.23,0,0,1,.15-3.34c.15-.74.41-1.38,1.41-1.41a1.44,1.44,0,0,1,1.61,1.31,21.21,21.21,0,0,1,.19,4.06c1,3.16-.92,6-.83,9.17.74,26.58.19,53.17.35,79.76,0,7.25.44,7.69,7.8,7.69H286a71.85,71.85,0,0,1,10.17.41,10.22,10.22,0,0,0,6.15-1.25c3-.34,5.85.23,8.78.48a2.59,2.59,0,0,1,1.86,1.07l0,4.3a4,4,0,0,1-1,2.86C311.38,508.7,312.54,510.49,313.9,512.21Z"/><path class="cls-1" d="M429.48,1.46A3.8,3.8,0,0,0,425.26,1c-1.29,1.57-2.56,1-3.82,0a10.19,10.19,0,0,0-1.89-.24c-15.45.54-30.92.08-46.38.23-1.44,0-2.87,0-4.31,0A3.36,3.36,0,0,1,366.24,0H841.92V89.76c-.64,1.52-.41,3.15-.64,4.73a104.83,104.83,0,0,1-23.82,53.58,104.27,104.27,0,0,1-28,23.7,102,102,0,0,1-18,8.31,14.15,14.15,0,0,1-4.69.86l-30.91-.05c-1-1.45-.65-3.09-.65-4.67q0-82.89,0-165.78A38.36,38.36,0,0,0,735,5.89a3.19,3.19,0,0,0-2.5-3.13c-1.27-1.48-2.79-.06-4.16-.33a2.34,2.34,0,0,0-2.41-.08c-.69.24-1.35.89-2.19.37-1.18-.79-2.51.18-3.72-.31s-2.66.24-4-.16c-1.22-.68-2.4.31-3.61.08-1.46-.92-2.83.37-4.25.19-1.28-1.28-2.63.42-3.93-.09-.79-.64-1.57-.33-2.4-.05-.62.21-1.13,1-1.92.47-1.36-1.23-2.88.66-4.26-.22s-2.68.22-3.92-.5c-1.16-.53-2.25.56-3.41.16-1.44-.9-2.78.49-4.19.19-1.3-1.23-2.69.48-4-.12-1.44-1-2.93.61-4.37-.06-1.38-.86-2.87.75-4.25-.2a1.07,1.07,0,0,0-.86-.06c-4.72.1-9.43.09-14.14.09-44.38,0-88.76.23-133.14-.12-13.65-.12-27.32.08-41-.46a1.09,1.09,0,0,0-.44.17c-1.25,1.09-2.78-.07-4.09.5-1.59.58-3.14-1.21-4.74-.05-1.11.45-2.17-.53-3.28-.09-1.35.7-2.74-.34-4.1.08a23.21,23.21,0,0,1-4.08-.22C460.37,1,459,.16,457.43,1.45c-1.3,1.09-2.6.47-3.91,0-1.31-1.14-2.77-1-4.26-.49-1.27,1.66-2.54,1.14-3.81,0a4.28,4.28,0,0,0-3.92.54c-1.18,1-2.53.46-3.82.44C436,.23,435.43.17,433.4,1.48,432.09,2.5,430.79,1.93,429.48,1.46Z"/><path class="cls-5" d="M417.6,461.76v-1.94a3.16,3.16,0,0,1,2.57-1.18c1.68,0,3.35,0,5,0,3.49-.15,4.47-1.14,4.6-4.69.08-2.23,0-4.47,0-6.7,0-1.33.39-2.31,1.81-2.64,1.38.47,1.41,1.93,2.14,2.87a57,57,0,0,0-.16,6.14c.36,4.33,2.45,6,6.82,5a1.3,1.3,0,0,1,1.31.22,8.4,8.4,0,0,1,1.51,2.27c-.47,1.62-1.74,1.82-3.18,1.88-6.12.24-6.41.55-6.41,6.72,0,3.68-.08,7.35.05,11,.1,3.14,1.11,4.19,4.22,4.28,4.71.13,9.43.14,14.14,0,3-.09,3.91-1.15,4.11-4.16.05-.8.07-1.6.05-2.4a2.61,2.61,0,0,1,1.85-2.8,3.44,3.44,0,0,1,1.59.69c1,1.37.05,2.87.31,4.34.6,3.41,1.3,4.23,4.78,4.37a16,16,0,0,1,4.36.34,1.29,1.29,0,0,0,1.42-.47c.61-.75,1.29-.32,1.95-.06,1.16.93,2.9,1.09,3.53,2.71-.2,1.53-1.26,1.81-2.58,1.81-2.95,0-5.91-.06-8.86,0-3.39.12-4.41,1.12-4.48,4.53-.1,4.31-.11,8.62,0,12.93.09,3.4,1.12,4.45,4.49,4.54q6.58.17,13.18,0c3.23-.08,4.23-1.12,4.33-4.42.12-4.23,0-8.46,0-12.69a4.6,4.6,0,0,1,.75-3.2,1.77,1.77,0,0,1,.73-.5,2.3,2.3,0,0,1,1.75.32,1.67,1.67,0,0,1,.69,1.1c.74,4.76.27,9.55.41,14.32.12,4.09,1,5,5.16,5.1,3.9.06,7.81.06,11.71,0,4.21-.06,5.11-1,5.19-5.3,0-1.76,0-3.51,0-5.26.08-2.39.46-2.73,3-2.86a1,1,0,0,1,.71.4c1,2.54.53,5.2.6,7.81.13,4.32.92,5.18,5.26,5.22,4.07,0,8.15.07,12.22,0,3.56-.07,4.45-1,4.6-4.64.11-2.78-.3-5.59.47-8.34a1.05,1.05,0,0,1,.31-.85c2.13-.43,3.31.46,3.49,2.79.17,2.07,0,4.15.08,6.22.12,3.7,1.09,4.74,4.71,4.82q6.33.13,12.67,0c3.51-.08,4.53-1.13,4.65-4.64.16-5.09-.17-10.19.24-15.28a1.87,1.87,0,0,1,.7-.58,3.12,3.12,0,0,1,1.32-.4,1,1,0,0,1,.77.44,5,5,0,0,1,.84,3.38c0,4.15-.07,8.3,0,12.45.09,3.52,1.13,4.56,4.65,4.63q6.58.15,13.17,0c3.55-.08,4.58-1.1,4.66-4.61q.15-6.46,0-12.94c-.08-3.37-1.11-4.35-4.55-4.46-3.11-.1-6.23,0-9.34-.05-1.19,0-2.25-.19-2.43-1.67.34-1.84,2.23-1.85,3.31-2.81.44-.17,1-.6,1.33-.38,2.51,1.74,5.2.33,7.77.42s3.55-1.09,3.93-3.79c.22-1.55-.19-3.08.11-4.61a5.38,5.38,0,0,1,1.75-1.43c1.45.24,1.92,1.23,2,2.55,0,.4,0,.8,0,1.2.09,5.63.66,6.21,6.19,6.22,3.84,0,7.67.08,11.5,0,3.27-.1,4.27-1.09,4.35-4.39.11-4.39.1-8.78,0-13.17-.07-3.38-1.09-4.27-4.54-4.48-1.81-.1-4,.61-5-1.71.16-1,.94-1.57,1.46-2.33,1.45-.74,3,.12,4.52-.26,2.51-.63,3.51-1.32,3.53-4,0-1.9,1-3.93-.46-5.77-.24-.29.18-.89.36-1.33,1-1.15,1.07-3,2.75-3.53a2.34,2.34,0,0,1,1.76,2.66c0,1.67,0,3.35,0,5,0,6.34.55,6.88,6.78,6.9.8,0,1.6,0,2.39,0a3,3,0,0,1,2.58,1.18v1.93a3.21,3.21,0,0,1-2.91,1.19c-1.75,0-3.51-.08-5.25.09-2.36.23-3.39,1.12-3.49,3.45-.23,5-.23,10,0,15.06.11,2.31,1.15,3.18,3.52,3.41a51.29,51.29,0,0,0,5.26.08,3.17,3.17,0,0,1,2.86,1.18c0,.64,0,1.29,0,1.93a3.25,3.25,0,0,1-2.91,1.21c-1.76,0-3.51-.09-5.26.08-2.36.23-3.38,1.12-3.49,3.45-.23,5-.23,10,0,15.06.11,2.31,1.15,3.18,3.53,3.41a51.29,51.29,0,0,0,5.26.08,3.13,3.13,0,0,1,2.84,1.17v1.5a3.14,3.14,0,0,1-2.84,1.17,51.29,51.29,0,0,0-5.26.08c-2.38.23-3.42,1.1-3.53,3.41-.23,5-.23,10.05,0,15.06.11,2.33,1.13,3.22,3.49,3.45,1.74.17,3.5.08,5.26.08a3.22,3.22,0,0,1,2.9,1.21v1.93a3.17,3.17,0,0,1-2.86,1.18,51.29,51.29,0,0,0-5.26.08c-2.37.22-3.41,1.1-3.52,3.41-.23,5-.23,10.05,0,15.06.1,2.33,1.13,3.22,3.49,3.45,1.74.17,3.5.08,5.25.09a3.21,3.21,0,0,1,2.91,1.19c0,.64,0,1.29,0,1.93a3.2,3.2,0,0,1-2.87,1.19c-1.75,0-3.51-.09-5.25.08-2.37.23-3.41,1.11-3.52,3.42-.23,5-.23,10,0,15.06.11,2.32,1.13,3.21,3.49,3.44,1.75.17,3.5.08,5.26.09a3.2,3.2,0,0,1,2.9,1.19v1.92a3.24,3.24,0,0,1-2.92,1.2c-2,0-4-.09-6,.09-1.5.13-3,.27-4.06,1.59h-1.92c-1.1-1.42-2.73-1.57-4.31-1.61-5.25-.13-10.5-.15-15.75,0-1.43.05-3.11-.1-3.94,1.6h-2.4c-.63-1.46-2-1.51-3.26-1.55-5.82-.23-11.66-.23-17.48,0-1.23,0-2.63.09-3.26,1.55h-2.4c-.55-1.37-1.85-1.46-3-1.51-5.88-.29-11.76-.28-17.65,0a4.15,4.15,0,0,0-3.36,1.53h-1.92c-1.11-1.42-2.74-1.57-4.33-1.61q-7.91-.21-15.82,0c-1.59,0-3.22.19-4.33,1.61h-1.92c-1.11-1.42-2.74-1.57-4.33-1.61q-7.9-.21-15.82,0c-1.59,0-3.22.19-4.33,1.61h-1.92c-1.11-1.42-2.74-1.57-4.33-1.61q-7.9-.21-15.82,0c-1.59,0-3.22.19-4.33,1.61H457c-.63-1.46-2-1.51-3.26-1.55-5.82-.23-11.66-.23-17.48,0-1.23,0-2.63.09-3.26,1.55h-2.4c-.67-1.54-2.15-1.42-3.43-1.57a56.05,56.05,0,0,0-6.61-.1,3.26,3.26,0,0,1-2.92-1.21v-1.93a3.23,3.23,0,0,1,2.89-1.18c1.91,0,3.83.09,5.74-.09,2.36-.23,3.39-1.11,3.5-3.43q.34-7.53,0-15.07c-.11-2.32-1.15-3.2-3.52-3.42-1.91-.18-3.83-.08-5.74-.08a3.2,3.2,0,0,1-2.86-1.19V565a3.25,3.25,0,0,1,2.89-1.2c1.92,0,3.84.1,5.74-.08,2.36-.23,3.39-1.12,3.5-3.44q.34-7.53,0-15.07c-.11-2.31-1.15-3.19-3.53-3.41-1.91-.18-3.83-.09-5.74-.08a3.15,3.15,0,0,1-2.85-1.18c0-.64,0-1.29,0-1.93a3.19,3.19,0,0,1,2.9-1.2c1.91,0,3.83.09,5.74-.09,2.35-.23,3.38-1.12,3.49-3.44.23-5,.24-10,0-15.06-.11-2.29-1.17-3.18-3.53-3.41-1.9-.19-3.82-.09-5.73-.09a3.14,3.14,0,0,1-2.84-1.17v-1.5a3.14,3.14,0,0,1,2.84-1.17c1.91,0,3.83.1,5.73-.09,2.36-.23,3.42-1.12,3.53-3.41.25-5,.24-10.05,0-15.06-.11-2.32-1.14-3.22-3.49-3.44-1.91-.18-3.83-.08-5.74-.09a3.24,3.24,0,0,1-2.91-1.2l0-1.93a3.13,3.13,0,0,1,2.84-1.18c1.91,0,3.83.1,5.73-.08,2.38-.22,3.43-1.1,3.54-3.4q.34-7.53,0-15.07c-.11-2.33-1.14-3.22-3.49-3.45-1.9-.18-3.82-.08-5.74-.09A3.2,3.2,0,0,1,417.6,461.76Z"/><path class="cls-6" d="M793.44,596.16c-2.38-6.61-4.79-13.22-7.14-19.85q-5-14-9.87-28a5.67,5.67,0,0,1-.55-2.53,6.49,6.49,0,0,1,3.24,3.8q1.8,5,3.57,9.92,5.92,16.72,11.81,33.45c.37,1.05.58,2.16.86,3.24Z"/><path class="cls-6" d="M676.8,596.16c1-4.64,2.91-9,4.45-13.41,3.41-9.89,7-19.74,10.46-29.6.48-1.36,1-2.7,1.52-4a7.24,7.24,0,0,1,2.81-3.35c.53.83,0,1.47-.16,2.06q-5.11,14.59-10.27,29.17c-2.27,6.4-4.59,12.78-6.89,19.17Z"/><path class="cls-6" d="M672,596.16a17.19,17.19,0,0,1,1.07-3.93q6.3-17.73,12.61-35.47a7.77,7.77,0,0,1,3.4-4.49c-.05,2-8.42,26.2-15.16,43.89Z"/><path class="cls-6" d="M798.24,596.16l-15.71-44a6.31,6.31,0,0,1,3.69,4q1.88,5.05,3.68,10.14,4.65,13.11,9.27,26.23a17,17,0,0,1,1,3.7Z"/><path class="cls-6" d="M667.2,596.16a28.57,28.57,0,0,1,1.69-5.73q4.9-13.87,9.87-27.73c.57-1.61,1.25-3.09,3.16-3.75a3.27,3.27,0,0,1-.38,2.51q-4,11.28-8,22.54c-1.45,4.06-2.92,8.11-4.38,12.16Z"/><path class="cls-6" d="M803,596.16c-4.4-12.29-8.81-24.58-13.37-37.32a4.94,4.94,0,0,1,3.65,3.64c1.55,4.35,3.12,8.71,4.67,13.07q3,8.44,6,16.92a16.76,16.76,0,0,1,1,3.69Z"/><path class="cls-4" d="M433,596.16c-.33-2.34,0-2.82,2.18-2.84q9.83-.09,19.63,0c2.24,0,2.51.49,2.19,2.84Z"/><path class="cls-4" d="M564.48,596.16c-.32-2.35-.05-2.82,2.19-2.84q9.81-.09,19.62,0c2.24,0,2.51.49,2.19,2.84Z"/><path class="cls-6" d="M807.84,596.16c-3.75-10.17-7.3-20.4-11-31.14a6.43,6.43,0,0,1,3.71,4.15l4.9,13.78c1.18,3.32,2.35,6.64,3.48,10,.36,1.05.57,2.16.85,3.24Z"/><path class="cls-4" d="M511.68,596.16c.34-2.47.61-2.83,2.9-2.85q9.33-.07,18.68,0c2.28,0,2.55.37,2.9,2.85Z"/><path class="cls-4" d="M458.88,596.16c.36-2.54.62-2.84,3.14-2.86q9.11-.06,18.21,0c2.52,0,2.79.33,3.13,2.86Z"/><path class="cls-4" d="M485.28,596.16c.34-2.47.61-2.83,2.9-2.85q9.35-.07,18.68,0c2.29,0,2.56.38,2.9,2.85Z"/><path class="cls-6" d="M662.4,596.16a38,38,0,0,1,2.16-7.1c2.29-6.57,4.67-13.11,7-19.67a7,7,0,0,1,3.15-4.14c.58.62.2,1.22,0,1.76q-5.19,14.58-10.39,29.15Z"/><path class="cls-4" d="M538.08,596.16c.33-2.47.61-2.83,2.89-2.85q9.46-.07,18.93,0c2.24,0,2.51.5,2.18,2.84Z"/><path class="cls-4" d="M590.88,596.16c-.33-2.34-.06-2.82,2.18-2.84q9.47-.09,18.93,0c2.28,0,2.56.38,2.89,2.85Z"/><path class="cls-6" d="M812.64,596.16c-2.85-7.94-5.71-15.89-8.74-24.31a5,5,0,0,1,3.58,3.46c1,2.61,1.95,5.24,2.81,7.9,1.38,4.33,3.38,8.46,4.27,12.95Z"/><path class="cls-6" d="M657.6,596.16a20,20,0,0,1,1.23-4.37q2.82-8,5.67-16a6.22,6.22,0,0,1,3.06-3.82c.12,1.86-3.25,11.94-8,24.23Z"/><path class="cls-7" d="M661,577.92a28,28,0,0,1-.69,2.77c-1.83,5.16-3.7,10.31-5.55,15.47H652.8c1.12-5,3.26-9.6,4.85-14.41a6,6,0,0,1,3.31-3.83Z"/><path class="cls-7" d="M811.2,577.92a6,6,0,0,1,3.31,3.83c1.59,4.81,3.73,9.44,4.85,14.41h-1.92c-1.9-5.31-3.82-10.61-5.7-15.92a20,20,0,0,1-.54-2.32Z"/><path class="cls-4" d="M417.6,593.28c3.59,0,7.19,0,10.78,0,2.24,0,2.51.5,2.18,2.84h-13Z"/><path class="cls-4" d="M616.8,596.16c.35-2.53.62-2.83,3.14-2.86,3.27,0,6.55,0,9.82,0v2.88Z"/><path class="cls-7" d="M648,596.16a47.82,47.82,0,0,1,2.74-8.6,5.63,5.63,0,0,1,2.94-3c-.83,4-2.44,7.78-3.76,11.62Z"/><path class="cls-7" d="M822.24,596.16c-1.35-3.8-2.86-7.54-4.12-11.84a5.58,5.58,0,0,1,3.29,3.24,45.57,45.57,0,0,1,2.75,8.6Z"/><path class="cls-8" d="M643.2,596.16c.38-2.11.83-4.18,3.45-5.13-.08,2-1,3.52-1.53,5.13Z"/><path class="cls-7" d="M827,596.16a32,32,0,0,1-1.73-5.2c2.82,1,3.27,3.09,3.65,5.2Z"/><path class="cls-9" d="M564,491.52h-.47L563,492l-.47,0a5.12,5.12,0,0,1-3.1,2.57,108.09,108.09,0,0,1-18.31,4.68,3.35,3.35,0,0,1-2.53-.35,2.28,2.28,0,0,0-2.47-.19h0a5.85,5.85,0,0,1-4.6,1.66c-5.09.05-10.19,0-15.29,0a6,6,0,0,1-4.6-1.65h0a1.63,1.63,0,0,0-1.81-.12c-1.81,1.26-3.7.7-5.55.34a115.17,115.17,0,0,1-15.49-4,6.53,6.53,0,0,1-3.53-2.46l-.5-.47c-.25-.31-.71-.18-1-.47l-.44,0c-.49.26-1,.66-1.56.42-2.47-1-5.51-1.21-6.67-4.3l-2.84-1.46c-4.5-.55-7.72-3.6-11.39-5.79-1.25-.75-1.26-2.28-2.08-3.3l-.94-.52c-1.9.19-3.21-.91-4.48-2.08-3.58-3.3-7.05-6.71-10.37-10.28a3.41,3.41,0,0,1-1-3l-1-1.44c-5-2.47-7.1-7-8.6-12-.33-.77-.67-1.55-1-2.33a3.36,3.36,0,0,1-2.72-2c-1-1.71-1.78-3.53-2.68-5.28-.68-1.3,0-2.6-.34-3.87l-.5-.93a6.14,6.14,0,0,1-2.67-3.77c-1.86-5.7-4-11.32-4.23-17.42-.06-1.3.26-2.53.19-3.8a13,13,0,0,1-1-5.86q0-54.83,0-109.66c0-1,0-1.92,0-2.88-.09-2.54-.61-3.09-3.21-3-2.4.09-4.79.3-7.17.59a106.15,106.15,0,0,0-88.38,70.82A107.35,107.35,0,0,0,313,394.08q.07,50.28,0,100.55c0,1.52,0,3,0,4.55-3.37.28-6.7-.48-10.06-.44-2.43,1.07-4.87.12-7.3,0-8.71-.36-16.71-3.43-24.56-6.78a103.65,103.65,0,0,1-34.42-23.54,108.73,108.73,0,0,1-27.83-49.89,55,55,0,0,1-1.4-16.74,8.85,8.85,0,0,0-.3-3.3c-.8.35-.59,1-.62,1.49-.05,1,0,1.92,0,2.87v90.85c0,1,0,1.92,0,2.88-.14,2-.69,2.49-2.7,2.56-2.32.09-4.6-.59-6.93-.42a53.9,53.9,0,0,1-16-1.3,105.12,105.12,0,0,1-44.63-23.31c-16.58-14.46-27.48-32.45-33.33-53.57-1.36-4.91-1.39-10-1.76-15,0-.78.24-1.6-.22-2.34,0-.63,0-1.26,0-1.89q0-4.68,0-9.36,0-113.85,0-227.71c0-1.12,0-2.24.09-3.35a1.85,1.85,0,0,1,1.84-1.86c1-.09,1.91-.1,2.87-.1,16.24,0,32.48,0,48.71,0,14.12-.06,26.12-5.29,36.27-15.05A51.62,51.62,0,0,0,206.1,114a55.7,55.7,0,0,0,.77-9.31c0-8.48,0-17,0-25.43.4-2.57.65-2.81,3.16-2.89,1,0,2.08,0,3.11,0q102.9,0,205.8-.07A102.09,102.09,0,0,0,461.26,67a119.76,119.76,0,0,0,17.11-9.64A6.38,6.38,0,0,1,481,56.17c.66-.21,1.28-.21,1.56.57A14.08,14.08,0,0,0,485.2,61c.41.8.66.24.44.48-.05.05-.11,0-.14,0-1.05-2.66-2.37-5.24-2.57-8.18,1.28-.91,1.69-3,3.83-2.68,1.48-.48,1.75.69,2.12,1.62,1.78,4.45,3.26,9,4.84,13.52a15.87,15.87,0,0,0,3.33,6.07c-1.05-2.12-1.7-4.86-2.68-7.47-1.83-4.85-3.48-9.77-5.26-14.64a3.54,3.54,0,0,1-.36-2.54c1.57-1.14,3-2.56,5.15-2.47,1.06.88,1.2,2.22,1.61,3.4,3.17,9.21,6.56,18.36,9.73,27.57.89,2.59,1.82,5.16,3.82,6.87.31.45.37-.12.16.12s-.15.08-.2,0c-1.81-3.81-2.94-7.88-4.38-11.82-3.27-8.93-6.3-18-9.57-26.88a4.16,4.16,0,0,1-.28-1.4c1.06-1.88,2-3.91,4.53-4.1,1.18.13,1.16,1.22,1.43,2,4.54,12.55,8.95,25.13,13.43,37.69,1.32,3.68,2.54,7.4,4,11a8.47,8.47,0,0,0,2.17,3.38c-4.43-12.62-8.86-25-13.26-37.4-2.11-5.94-4.27-11.87-6.29-17.85-.3-.88-1.13-1.88-.11-2.87.57-.17,1.14-.37,1.3-1,.31-1.29,1.38-1.61,2.42-2,1.66-.13,1.6,1.34,1.93,2.25,3.47,9.53,6.84,19.1,10.24,28.66q6.61,18.63,13.24,37.25a10.87,10.87,0,0,0,2.5,4.11q-9.84-27.56-19.56-55c-2.3-6.47-4.71-12.91-6.83-19.45A5.72,5.72,0,0,1,505.7,28a.91.91,0,0,1,.48-1.06,2.69,2.69,0,0,0,1.22-1.65c.24-1,.66-2,2-1.4a11.05,11.05,0,0,1,3.49,5.48q11.49,32.3,23,64.6c1.84,5.19,3.76,10.36,5.55,15.58a12.93,12.93,0,0,0,2.58,4.46c-4.85-13.39-9.58-26.91-14.38-40.41Q522.3,52.8,514.94,32a21.36,21.36,0,0,0-5.73-8.26c-.75-.92-.07-1.71.32-2.41a121.27,121.27,0,0,0,8.1-18.42c.71-2,2.18-2.21,4-2.21q59.37,0,118.75,0,14.63,0,29.26,0c.78,0,1.61-.25,2.34.25l.1.5c1.3.57.76,1.55.49,2.41-1.31,4.2-2.85,8.32-4.33,12.46q-9,25.31-17.94,50.64c-1.79,5-3.59,10.06-5.45,15.26,2.26-2.17,2.89-5,3.81-7.58,6.71-19.08,13.52-38.12,20.25-57.2,1.62-4.6,3.19-9.22,4.91-13.78.39-1,.78-2,2.09-2.22a5,5,0,0,1,4.29,0c1.69.86.63,2.1.29,3.07-2.64,7.45-5.25,14.92-7.91,22.37Q665.24,47.45,658,68a19.7,19.7,0,0,1-1.58,3.83,16.29,16.29,0,0,0,3.52-6.26c7.18-20.34,14.46-40.64,21.63-61,.47-1.32.79-2.79,2.49-3.14A10.35,10.35,0,0,1,688.33,1c1.52,1.17.56,2.5.14,3.69q-3.59,10-7.15,20.08-6,16.82-12,33.64a16.28,16.28,0,0,1-1.4,3.24c4.35-5.54,5.56-12.27,7.86-18.49,4.69-12.66,9.11-25.41,13.61-38.14.56-1.59,1.16-3.14,2.75-4,1.37,0,2.82-.27,3.88,1,1.36.53.84,1.52.53,2.39C692.73,15.09,689,25.9,685.13,36.64c-1.66,4.61-3.19,9.26-4.88,13.6-.38.43.29.23,0,.17-.13,0-.16-.11,0-.21A9.45,9.45,0,0,0,683,45.7q7.18-20.22,14.33-40.45c.46-1.31.46-3.15,2.53-3.31a3.75,3.75,0,0,1,4.33-.48c1.35.54.84,1.53.53,2.39C701.1,14,697.52,24.18,693.9,34.34c-.61,1.73-1.17,3.49-1.88,5.16,2.54-2.43,3.2-5.83,4.31-8.95,3.08-8.65,6.19-17.3,9.2-26,.46-1.32.81-2.76,2.49-3.12A10.33,10.33,0,0,1,712.33,1,1.66,1.66,0,0,1,713,3c-3.11,8.76-6.12,17.56-9.29,25.92,3.38-3.69,4.17-9,6-13.73,1.37-3.48,2.62-7,3.74-10.61A6,6,0,0,1,716.16,1h4.28c.18.16.35.32.51.49s.45.54.31.93c-1.78,5.43-3.63,10.84-5.7,15.83a11.4,11.4,0,0,0,3.15-5.3c1.09-3.08,2.07-6.21,3.29-9.25.36-.87.56-1.91,1.9-1.7a3.67,3.67,0,0,1,4.32-.49c1,.35,1,1.05.71,1.89a29.9,29.9,0,0,1-1.68,4.29,13.54,13.54,0,0,0,3.06-4.87A2,2,0,0,1,732,1.46a10.68,10.68,0,0,1,1.62-.41c1.7-.14,2.37.4,2.56,2.09a21.13,21.13,0,0,1,.07,2.39q0,85.44,0,170.86a11.61,11.61,0,0,1-.49,4.5l-66.48,0H574a50,50,0,0,0-26.73,7.33c-9.51,5.84-15.84,14.26-19.77,24.6a14.41,14.41,0,0,1-1.9,4.12c.28,1.34-.12,2.68-.08,4a2,2,0,0,0-.39.49l-.09.31a49.81,49.81,0,0,0-.49,21.12l.57.36c.55.2.52.66.5,1.12a5.45,5.45,0,0,1-.52,2.81,56.07,56.07,0,0,0,7.17,17.42c8.29,12.79,20.09,20,35.17,21.91a68.75,68.75,0,0,0,8.84.51q26.72,0,53.43,0c0,.88,0,1.76,0,2.64q0,55.83,0,111.67a21.48,21.48,0,0,1-.95,7.56c.78,2.93,0,5.82-.48,8.64a68.83,68.83,0,0,1-3.58,12.37,6.81,6.81,0,0,1-2.67,3.53l-.5.93c.59,3.58-1.63,6.23-3,9.19-.5,1.07-1.41,1.15-2.3,1.4l-1.44,2.85a20.07,20.07,0,0,1-3.24,7.12c-1.47,2-2.84,4.09-5.39,4.91l-1,1.41a3.69,3.69,0,0,1-1.1,3.12c-3,3.74-6.66,6.77-10.12,10-1.15,1.07-2.37,2.08-4.13,1.73l-1,1a8.88,8.88,0,0,1-3.65,4.09c-3.21,2.13-6.27,4.5-10.25,5l-2.84,1.45C571.3,490.22,566.53,492.46,564,491.52Z"/><path class="cls-10" d="M704.65,543.38a2.6,2.6,0,0,0-1.46-2c-.41-.43-1.11-.41-1.44-1a6.42,6.42,0,0,0-1.67-2c-11-10.59-17-23.42-17-38.82-.07-15.78,5.86-29,17.42-39.59a53.09,53.09,0,0,1,88.09,31.23c2.21,14.72-1.28,28.09-10,40.08a42.41,42.41,0,0,1-6.42,7.1,5.68,5.68,0,0,0-1.68,2c-.33.56-1,.54-1.44,1a2.6,2.6,0,0,0-1.46,2c-1,.68-1.32,0-1.57-.76-.75-2.32-1.7-4.57-2.35-6.49.54,1.79,1.52,3.85,2.14,6,.24.84.62,1.49-.63,1.67a3.66,3.66,0,0,0-1.43,2.41c-1.51.82-1.64-.72-1.84-1.34-1.52-4.91-3.45-9.68-5.11-14.54,1.59,4.63,3.47,9.15,4.81,13.86.21.75,1,1.51-.29,2a6.3,6.3,0,0,0-1.89,1.43c-2.2.59-2-1.67-2.26-2.45-2.1-7.2-5.16-14.06-7.41-21.2-.22-.69-.52-1.41-.79-2.12.47-1.19,1.56-1.77,2.5-2.51,6.46-5.06,10.09-11.83,9.93-19.89-.26-12.67-7.78-22.38-20.79-24.9a24.85,24.85,0,0,0-29.19,20.27c-1.82,10,1.71,18,9.34,24.45.94.8,2.24,1.32,2.51,2.78-2.81,7.93-5.7,15.85-8.52,23.8-.29.83-.2,2.29-1.86,1.77a6.3,6.3,0,0,0-1.89-1.43c-1.52-.69-.5-1.79-.23-2.52,1.49-4.16,2.78-8.39,4.51-12.46.13-.29,0-.62.2-.87-.14.1-.07.29-.12.42q-2.55,7.14-5.13,14.27c-.28.77-.36,1.84-1.66,1.16a3.66,3.66,0,0,0-1.43-2.41c-1.26-.18-.85-.84-.63-1.68.58-2.21,1.63-4.24,2.13-6-.73,2-1.61,4.31-2.46,6.65C705.75,543.73,705.42,543.86,704.65,543.38Z"/><path class="cls-4" d="M629.75,486.22c-3.27,0-6.54,0-9.81,0-2.57,0-3.09-.55-3.11-3.13q-.06-9.09,0-18.18c0-2.57.55-3.08,3.12-3.12,3.27-.06,6.54,0,9.81,0Q629.76,474,629.75,486.22Z"/><path class="cls-4" d="M629.76,591.36c-3.27,0-6.54,0-9.81,0-2.57,0-3.1-.55-3.12-3.12q-.06-9.09,0-18.19c0-2.57.54-3.08,3.11-3.12,3.27,0,6.54,0,9.81,0Z"/><path class="cls-4" d="M629.76,565c-3.27,0-6.54,0-9.81,0-2.57,0-3.1-.55-3.12-3.12q-.08-9.09,0-18.18c0-2.58.54-3.09,3.11-3.13,3.27,0,6.54,0,9.81,0Q629.75,552.72,629.76,565Z"/><path class="cls-4" d="M629.76,538.57c-3.27,0-6.54,0-9.8,0-2.58,0-3.11-.56-3.13-3.12q-.06-9.09,0-18.18c0-2.59.54-3.1,3.1-3.14,3.27-.05,6.54,0,9.81,0Q629.76,526.34,629.76,538.57Z"/><path class="cls-4" d="M629.74,512.61c-3.27,0-6.54,0-9.81,0-2.56,0-3.08-.55-3.1-3.14q-.06-9.09,0-18.18c0-2.56.56-3.08,3.13-3.12,3.27-.05,6.54,0,9.81,0Z"/><path class="cls-4" d="M616.32,445a82.29,82.29,0,0,0,5.28-10.59c1.08,1.12,2.49.92,3.83.94,4.14.07,4.33.24,4.34,4.36q0,10.07,0,20.13c-3.27,0-6.55,0-9.82,0-2.56,0-3.06-.55-3.11-3.14s0-5.43,0-8.14A8.86,8.86,0,0,0,616.32,445Z"/><path class="cls-6" d="M751.19,551.54c.89,3.61,2.47,7,3.59,11a4.3,4.3,0,0,1-3.12-2.77c-.74-1.75-1.32-3.58-2-5.36-.42-1.12-.89-2.22-1.33-3.32a4.33,4.33,0,0,1-2.13-2.88c-2.5-7.39-5.26-14.7-7.77-22.08-.5-2.25-2-4.13-2.33-6.55-.5,2.33-1.68,4.24-2.35,6.36-2.51,7.73-5.5,15.28-8,23a4.67,4.67,0,0,1-1.87,2.16c-1,2.68-2.05,5.37-3.07,8.06a5.28,5.28,0,0,1-3,3.35c-.46-1,.08-1.66.31-2.37,1.07-3.35,2.57-6.55,3.32-10a3.37,3.37,0,0,1,.06-2.86c2.54-7.57,5.4-15,8-22.57,1.48-4.09,3-8.17,4.28-12.33.17-.54.38-1.05.6-1.57a2,2,0,0,1,1.64-1.41c.9,0,1.48.63,1.84,1.45,1.12,2.5,1.76,5.17,2.76,7.72.78,2,1.48,4.13,2.14,6.23,2.53,7.55,5.46,15,7.92,22.53a3.41,3.41,0,0,1,.07,2.81l0,1Z"/><path class="cls-10" d="M744,552a63.45,63.45,0,0,1-15.82,0c-1.84-1.26-.23-2.47.13-3.6,1.89-5.93,4.13-11.73,6.23-17.58.26-.72.35-1.65,1.66-1.6s1.22,1,1.46,1.61c2.5,6.26,4.29,12.78,7,19C744.84,550.27,745.37,551.64,744,552Z"/><path class="cls-6" d="M744,552c-2.22-6.85-4.74-13.59-7.21-20.35a1,1,0,0,0-.59-.71c-1.29,1.31-5.79,13.13-8,21.06a7.13,7.13,0,0,1-3.34,4.08c-.33-1.76.76-3.08.94-4.57-.82-2.44.68-4.38,1.37-6.52,2.06-6.34,4.42-12.57,6.61-18.87,0-.28.09-.56.13-.83,0-.47.38-.77.59-1.15,1.63-2,1.63-2,3.26.05.2.38.59.67.57,1.16,0,.29.08.57.13.85,2.57,7.51,5.48,14.91,7.9,22.48a4,4,0,0,1,.06,2.83c.28,1.45,1.05,2.79,1.15,4.54C745.42,555.28,744.72,553.63,744,552Z"/><path class="cls-6" d="M755,548.64c.86,4,2.59,7.69,3.87,11.55,1,2.85,2,5.68,3.18,9a7.64,7.64,0,0,1-3.92-4.47c-1.18-3.22-2.31-6.45-3.45-9.68-.54-1.5-1.07-3-1.61-4.51-3-2.7-3.37-6.58-4.68-10.06q-3-8-5.82-16.16c-1.25-2.91-2-6-3.26-8.92a2,2,0,0,1,.3-2.45c.85-.68,1.59,0,2.34.5,2.22,1.36,2.93,3.66,3.74,5.9.46,1.27.8,2.57,1.17,3.87,2.82,7.58,5.58,15.19,8.19,22.85A2.85,2.85,0,0,1,755,548.64Z"/><path class="cls-6" d="M719.06,550.56c-1.57,4.43-3.15,8.86-4.71,13.3a8.78,8.78,0,0,1-3.79,5.16c-.38-.84.08-1.45.3-2.07,1.79-5,3.61-10.05,5.39-15.09.37-1.05.59-2.15.88-3.22a2.93,2.93,0,0,1,0-2.69c2.69-7.6,5.32-15.22,8.19-22.75.57-2.08,1.26-4.11,2-6.13a8.24,8.24,0,0,1,3.15-3.79c.63-.44,1.3-1,2-.28s.55,1.32.25,2.21c-1,3.08-2.06,6.16-3.21,9.21-2.81,7.87-5.54,15.76-8.41,23.6C720.7,549.23,719.47,549.5,719.06,550.56Z"/><path class="cls-6" d="M701.75,540.46c.47-.2.87-.89,1.4-.52s.08,1,0,1.49a75.44,75.44,0,0,0-3,8.07q-7.17,20.09-14.24,40.2c-.62,1.75-1.37,3.38-3.33,4.31-.37-1.21.21-2.13.54-3,2.7-7.68,5.44-15.36,8.16-23q3.88-11,7.77-21.91C699.75,544.08,700.26,542,701.75,540.46Z"/><path class="cls-6" d="M704.65,543.38c1.1-2.06,1.57-4.35,2.48-6.48a7.23,7.23,0,0,1,3.37-4c-.69,4-2.59,7.3-3.44,10.91-2.6,7.22-5.22,14.44-7.8,21.66-2.18,6.1-4.33,12.21-6.5,18.31-.6,1.68-1.37,3.22-3.28,4-.37-.86.1-1.49.32-2.11l14-39.57C704.14,545.23,704.38,544.3,704.65,543.38Z"/><path class="cls-6" d="M769,541.43c0-.51-.48-1.14,0-1.49s.93.32,1.4.52a8.47,8.47,0,0,1,1.76,3.1q5.87,16.49,11.75,33c1.53,4.29,3.06,8.57,4.57,12.87a22.44,22.44,0,0,1,1.36,4.61,5.06,5.06,0,0,1-3.26-3.39c-.8-2.09-1.53-4.21-2.28-6.31q-7.12-20.1-14.24-40.2C769.75,543.19,769.34,542.32,769,541.43Z"/><path class="cls-6" d="M765.1,543.85c-.87-3.6-2.69-6.92-3.52-11a7.28,7.28,0,0,1,3.45,4c.91,2.13,1.38,4.42,2.48,6.48,1.46,5.16,3.47,10.12,5.24,15.17,3,8.68,6.14,17.32,9.21,26a5.48,5.48,0,0,1,.53,2.68c-1.33.13-1.88-.81-2.31-1.68a33.35,33.35,0,0,1-1.52-3.77L765.8,545.63C765.59,545,765.34,544.44,765.1,543.85Z"/><path class="cls-6" d="M749.73,521.78c2.2,4.77,3.64,9.83,5.51,14.73,1.41,3.71,2.5,7.54,4.11,11.18,2.06,6.55,4.57,12.94,6.82,19.43l2.75,7.84a4.87,4.87,0,0,1-3.4-3.31q-2.24-6.2-4.46-12.39l-3.63-10.15c-.29-.25-.18-.7-.47-1h0c-1.34-.46-1.66-1.6-2.09-2.8q-4.08-11.45-8.15-22.89c0-.16-.07-.32-.12-.47-.35-1.12-.66-2.36.7-2.93C748.44,518.6,749.48,519.85,749.73,521.78Z"/><path class="cls-6" d="M712.81,547.69c1.53-3.33,2.51-6.86,3.79-10.28,1.65-4.39,3.17-8.83,4.77-13.23.3-.82.7-1.6,1.06-2.4a1.82,1.82,0,0,1,.41-1.72c.59-.69,1.31-1.33,2.15-1s1,1.21.79,2.12c-.09.46-.28.89-.35,1.35-2.67,7.55-5.42,15.07-8,22.64-.42,1.22-.74,2.54-2.2,3h0c-.29.25-.18.7-.47,1l-7.92,22.09c-.54,1.53-1.23,2.93-3,3.58-.5-.77,0-1.4.21-2,2.37-6.7,4.77-13.38,7.14-20.08C711.75,551,712.26,549.36,712.81,547.69Z"/><path class="cls-6" d="M708.49,546.26c1.38-3,2.27-6.12,3.43-9.17.82-2.16,1.57-4.34,2.37-6.51a6.11,6.11,0,0,1,2.7-3.35c.52,1,0,1.83-.25,2.59q-2.88,8.22-5.82,16.44-5.19,14.65-10.39,29.31c-.67,1.87-1.21,3.82-2.81,5.2a1.81,1.81,0,0,1-1.14.63c-.32-.88.17-1.65.43-2.41,2.22-6.32,4.49-12.62,6.71-18.94C705.33,555.46,707.13,550.94,708.49,546.26Z"/><path class="cls-6" d="M761.24,546.26q-3.27-9.32-6.55-18.61l.56-.32A5.83,5.83,0,0,1,758,530.8c1.49,4.12,3,8.25,4.46,12.36.38,1.05.83,2.07,1.25,3.1,2.32,7.38,5.09,14.61,7.64,21.91,1.26,3.61,2.58,7.21,3.84,10.82a4.06,4.06,0,0,1,.45,2.49,6.07,6.07,0,0,1-3.12-3.67c-1.24-3.37-2.44-6.75-3.65-10.13Z"/><path class="cls-4" d="M622.1,433.47c1-3.1,2.32-6.08,3.24-9.21a155.14,155.14,0,0,0,3.49-15.33,3.7,3.7,0,0,1,.93,2.88c0,6.15,0,12.31,0,18.46,0,2.6-.54,3.09-3.1,3.17C625.14,433.49,623.62,433.46,622.1,433.47Z"/><path class="cls-10" d="M734.86,526.06c-2,6.5-4.47,12.81-6.72,19.2a41.5,41.5,0,0,1-2.37,6.26l-1.94-.48c2.23-7.41,5.11-14.59,7.62-21.9.47-1.35,1-2.69,1.5-4C734,524.65,734.78,524.62,734.86,526.06Z"/><path class="cls-10" d="M715.2,548.17q4.18-12.87,9.08-25.48c1-.35,1.58.1,2,1q-3.9,11.07-7.81,22.14c-.35,1-.86,1.89-1.29,2.83Z"/><path class="cls-10" d="M747.88,522.69c1.87,4.24,3.24,8.67,4.8,13,1.48,4.13,3.14,8.21,4.28,12.46l-1.93.47c-1.76-3.17-2.55-6.71-3.8-10.07-1.84-4.94-3.54-9.93-5.3-14.9C746.3,522.79,746.89,522.34,747.88,522.69Z"/><path class="cls-10" d="M746.39,551.52a41.5,41.5,0,0,1-2.37-6.26c-2.25-6.39-4.76-12.7-6.72-19.2.3-1.56,1.05-1.33,1.94-.47a96.54,96.54,0,0,1,3.85,10.3c1.78,5,3.74,10,5.24,15.15Z"/><path class="cls-10" d="M743.56,524.12c1.67,3.79,2.88,7.74,4.29,11.62,1.79,4.93,3.51,9.88,5.25,14.82l-2.38-.48c-2.14-4.4-3.35-9.14-5.09-13.68-1.43-3.73-2.67-7.53-4-11.29C742,524.15,742.7,524,743.56,524.12Z"/><path class="cls-10" d="M719.06,550.56q4.47-12.57,9-25.14c.16-.44.39-.86.59-1.3.86-.09,1.61,0,1.93,1q-4,11.28-8,22.56c-.29.83-.7,1.61-1.06,2.41Z"/><path class="cls-10" d="M714.73,549.11c.16-.31.31-.63.47-1C715,548.48,714.89,548.8,714.73,549.11Z"/><path class="cls-10" d="M757,548.16c.16.32.31.64.47,1Z"/><path class="cls-7" d="M661,577.92Z"/><path class="cls-10" d="M751.19,551.54l-.44-.49Z"/><path class="cls-7" d="M811.2,577.92Z"/><path class="cls-6" d="M736.57,219.5a2.75,2.75,0,0,1,2.63-2.82,2.87,2.87,0,1,1-2.63,2.82Z"/><path class="cls-6" d="M772.59,219.59a3.06,3.06,0,0,1-3,2.8,3,3,0,0,1-2.72-2.8,3.1,3.1,0,0,1,2.9-2.91A2.82,2.82,0,0,1,772.59,219.59Z"/><path class="cls-6" d="M620.91,245a3.07,3.07,0,0,1-3,2.81A3,3,0,0,1,615.2,245a3.1,3.1,0,0,1,2.9-2.91A2.82,2.82,0,0,1,620.91,245Z"/><path class="cls-6" d="M772.59,244.83a3.08,3.08,0,0,1-2.79,3,3,3,0,0,1-2.9-2.61,3.05,3.05,0,0,1,2.69-3.1A2.81,2.81,0,0,1,772.59,244.83Z"/><path class="cls-6" d="M833.13,219.37a2.77,2.77,0,0,1-2.67,3,2.86,2.86,0,0,1-.07-5.72A2.63,2.63,0,0,1,833.13,219.37Z"/><path class="cls-6" d="M797.39,270.5a2.74,2.74,0,1,1,5.47-.05,2.74,2.74,0,1,1-5.47.05Z"/><path class="cls-6" d="M772.59,270.26a3.06,3.06,0,0,1-2.82,3,3,3,0,0,1-2.88-2.68,3.09,3.09,0,0,1,2.86-3A2.73,2.73,0,0,1,772.59,270.26Z"/><path class="cls-6" d="M827.7,270.59a2.83,2.83,0,0,1,2.51-3,2.88,2.88,0,1,1-2.51,3Z"/><path class="cls-6" d="M620.92,270.46a3.09,3.09,0,0,1-3,2.82,3,3,0,0,1-2.69-2.88,3.12,3.12,0,0,1,3.07-2.79A2.76,2.76,0,0,1,620.92,270.46Z"/><path class="cls-6" d="M739.33,191.23a2.82,2.82,0,0,1,3,2.5,2.89,2.89,0,1,1-3-2.5Z"/><path class="cls-6" d="M651.17,270.36a2.78,2.78,0,0,1-2.73,3,2.87,2.87,0,1,1,2.73-3Z"/><path class="cls-6" d="M681.48,270.4a2.73,2.73,0,1,1-2.93-2.78A2.76,2.76,0,0,1,681.48,270.4Z"/><path class="cls-6" d="M584.89,219.49a2.74,2.74,0,0,1,2.68-2.81,3.09,3.09,0,0,1,3,2.86,2.94,2.94,0,0,1-2.71,2.84A3.05,3.05,0,0,1,584.89,219.49Z"/><path class="cls-6" d="M620.91,219.39a3.06,3.06,0,0,1-2.83,3,2.9,2.9,0,0,1-2.81-2.73,2.94,2.94,0,0,1,2.82-3A2.84,2.84,0,0,1,620.91,219.39Z"/><path class="cls-6" d="M681.45,219.46a2.78,2.78,0,0,1-2.52,2.95A2.84,2.84,0,0,1,676,219.6a2.78,2.78,0,0,1,2.81-2.91A2.64,2.64,0,0,1,681.45,219.46Z"/><path class="cls-6" d="M797.39,219.56a2.75,2.75,0,0,1,2.59-2.88,2.87,2.87,0,0,1,2.88,2.88,2.79,2.79,0,0,1-2.88,2.85A2.68,2.68,0,0,1,797.39,219.56Z"/><path class="cls-6" d="M681.48,245.14a2.64,2.64,0,0,1-2.7,2.71,2.84,2.84,0,1,1,2.7-2.71Z"/><path class="cls-6" d="M560.05,219.57a2.64,2.64,0,0,1-2.57,2.82,3.09,3.09,0,0,1-2.88-2.91,2.83,2.83,0,0,1,2.68-2.79A2.71,2.71,0,0,1,560.05,219.57Z"/><path class="cls-6" d="M524.69,221.31c-.79-1.69-.7-3.18.93-4.34.31-.07.62-.14.94-.19a2.49,2.49,0,0,1,2.85,1.24,3.19,3.19,0,0,1-.27,3.39c-.78,1-1.72,1.24-3.22.78a7.41,7.41,0,0,1-.86-.4h.05Z"/><path class="cls-6" d="M739.39,247.83a3.05,3.05,0,0,1-2.8-3,2.83,2.83,0,1,1,5.65.32A3,3,0,0,1,739.39,247.83Z"/><path class="cls-6" d="M587.73,196.69a2.73,2.73,0,1,1,0-5.45,3.07,3.07,0,0,1,2.89,2.9A2.75,2.75,0,0,1,587.73,196.69Z"/><path class="cls-6" d="M769.61,196.69a2.63,2.63,0,0,1-2.72-2.67,3.08,3.08,0,0,1,3-2.78,2.81,2.81,0,0,1,2.69,2.77A2.74,2.74,0,0,1,769.61,196.69Z"/><path class="cls-6" d="M711.73,245a2.67,2.67,0,0,1-2.58,2.82,3.09,3.09,0,0,1-2.87-2.92,2.83,2.83,0,0,1,2.68-2.79A2.72,2.72,0,0,1,711.73,245Z"/><path class="cls-6" d="M742.24,270.41a3,3,0,0,1-2.67,2.87,2.85,2.85,0,0,1-.3-5.69A3,3,0,0,1,742.24,270.41Z"/><path class="cls-6" d="M587.75,267.58a3.05,3.05,0,0,1,2.81,3,3,3,0,0,1-2.82,2.71,2.85,2.85,0,0,1,0-5.7Z"/><path class="cls-6" d="M554.6,270.39a2.74,2.74,0,0,1,2.66-2.78,2.87,2.87,0,0,1,.18,5.72A3.07,3.07,0,0,1,554.6,270.39Z"/><path class="cls-6" d="M590.56,245.1a3,3,0,0,1-2.8,2.74,2.85,2.85,0,1,1,2.8-2.74Z"/><path class="cls-6" d="M560.05,244.92a2.69,2.69,0,0,1-2.48,2.92,3.09,3.09,0,0,1-3-2.82,2.85,2.85,0,0,1,2.82-2.9A2.73,2.73,0,0,1,560.05,244.92Z"/><path class="cls-6" d="M711.73,219.6a2.65,2.65,0,0,1-2.6,2.79,3.08,3.08,0,0,1-2.85-2.94,2.83,2.83,0,0,1,2.7-2.76A2.71,2.71,0,0,1,711.73,219.6Z"/><path class="cls-6" d="M645.71,219.56a2.71,2.71,0,0,1,2.79-2.87,2.82,2.82,0,0,1,2.66,2.81,3.09,3.09,0,0,1-2.89,2.9A2.67,2.67,0,0,1,645.71,219.56Z"/><path class="cls-6" d="M833.16,245.15a2.61,2.61,0,0,1-2.74,2.68,3.09,3.09,0,0,1-2.7-2.89,2.73,2.73,0,1,1,5.44.21Z"/><path class="cls-6" d="M645.71,245.08a2.73,2.73,0,1,1,5.45-.07,3.09,3.09,0,0,1-2.77,2.82A2.63,2.63,0,0,1,645.71,245.08Z"/><path class="cls-6" d="M797.39,245.05a2.78,2.78,0,0,1,2.85-2.88,2.75,2.75,0,0,1,2.6,2.63,3.07,3.07,0,0,1-2.8,3A2.64,2.64,0,0,1,797.39,245.05Z"/><path class="cls-6" d="M711.73,270.43a2.66,2.66,0,0,1-2.58,2.85,3.09,3.09,0,0,1-2.87-3,2.73,2.73,0,1,1,5.45.12Z"/><path class="cls-6" d="M709.18,196.69a2.76,2.76,0,0,1-2.9-2.58,2.83,2.83,0,0,1,2.88-2.87,3,3,0,0,1,2.77,2.78A2.61,2.61,0,0,1,709.18,196.69Z"/><path class="cls-6" d="M618.05,196.69a2.61,2.61,0,0,1-2.78-2.62,3,3,0,0,1,2.7-2.83,2.73,2.73,0,1,1,.08,5.45Z"/><path class="cls-6" d="M648.39,191.2a2.73,2.73,0,1,1,.1,5.45,2.48,2.48,0,0,1-2.76-2.36A2.8,2.8,0,0,1,648.39,191.2Z"/><path class="cls-6" d="M524.6,243.27a2.19,2.19,0,0,1,0-.36,13.17,13.17,0,0,1,1.53-.61,2.83,2.83,0,0,1,3.3,1.19,3.12,3.12,0,0,1-.25,3.34c-.75,1-1.64,1.2-3.17.75a6.6,6.6,0,0,1-.86-.38,3.67,3.67,0,0,1-.93-2.9C524.47,244,524.38,243.58,524.6,243.27Z"/><path class="cls-6" d="M560,194a2.37,2.37,0,0,1-2.43,2.65,2.74,2.74,0,0,1-3-2.69,2.82,2.82,0,0,1,2.76-2.74A2.69,2.69,0,0,1,560,194Z"/><path class="cls-6" d="M833.13,193.88a2.57,2.57,0,0,1-2.63,2.77,2.72,2.72,0,1,1,2.63-2.77Z"/><path class="cls-6" d="M802.88,194a2.71,2.71,0,0,1-2.81,2.65,2.56,2.56,0,0,1-2.64-2.76,2.73,2.73,0,1,1,5.45.11Z"/><path class="cls-6" d="M681.45,193.88a2.57,2.57,0,0,1-2.63,2.77,2.72,2.72,0,1,1,2.63-2.77Z"/><path class="cls-1" d="M100.81,403.19a21,21,0,0,1,.77,4.72,104.54,104.54,0,0,0,25.67,55.59C145,483.45,167.2,495,193.62,498.56c1,.14,2.08.12,3.11.18a11,11,0,0,1-4.26.47q-45.83,0-91.66,0Z"/><path class="cls-11" d="M45.82,241.45c3.6,0,7.2,0,10.79,0,2.87,0,3.31.51,3.38,3.38q0,1.92,0,3.84c-.07,2.76-.53,3.24-3.22,3.3-1.92.05-3.84,0-5.76,0-5.27,0-10.55,0-15.83,0-3,0-3.43-.48-3.49-3.51q0-1.68,0-3.36c0-3.2.45-3.64,3.58-3.67C38.79,241.42,42.31,241.44,45.82,241.45Z"/><path class="cls-11" d="M45.82,224.65c3.6,0,7.2,0,10.79,0,2.87,0,3.31.51,3.38,3.38q0,1.92,0,3.84c-.07,2.76-.53,3.24-3.22,3.3-1.92,0-3.84,0-5.76,0-5.27,0-10.55,0-15.83,0-3,0-3.43-.48-3.49-3.51q0-1.68,0-3.36c0-3.2.45-3.64,3.58-3.67C38.79,224.62,42.31,224.64,45.82,224.65Z"/><path class="cls-11" d="M45.76,383c-3.6,0-7.19,0-10.79,0-2.74,0-3.2-.52-3.28-3.24,0-1.36,0-2.72,0-4.08.07-2.68.54-3.13,3.31-3.21H55.63c.64,0,1.28,0,1.92,0,1.74.17,2.29.65,2.39,2.37s.09,3.68,0,5.51S59.31,383,57.27,383c-3.84.08-7.67,0-11.51,0Z"/><path class="cls-12" d="M45.84,335.53c3.6,0,7.19,0,10.79,0,2.85,0,3.3.51,3.36,3.4,0,1.6,0,3.2-.06,4.79s-.64,2.09-2.22,2.29a11.49,11.49,0,0,1-1.44.05H35.41A11.55,11.55,0,0,1,34,346c-1.57-.2-2.13-.68-2.22-2.28q-.15-2.88,0-5.75c.1-1.82.67-2.36,2.59-2.42,2.63-.09,5.27,0,7.91-.05h3.6Z"/><path class="cls-12" d="M45.6,325.91c-3.52,0-7,0-10.55,0-2.85,0-3.3-.51-3.36-3.4,0-1.6-.05-3.21.06-4.8s.65-2.08,2.22-2.28a11.55,11.55,0,0,1,1.44-.05H56.28a11.39,11.39,0,0,1,1.43.05c1.58.2,2.12.68,2.22,2.29s.1,3.51,0,5.27c-.07,2.3-.6,2.84-2.86,2.91-2.48.07-5,0-7.44,0H45.6Z"/><path class="cls-12" d="M45.71,437.27c-3.6,0-7.2,0-10.79,0-2.7,0-3.17-.54-3.22-3.29,0-1.6-.06-3.2,0-4.8s.63-2.22,2.36-2.39a17.59,17.59,0,0,1,1.92-.06H55.68a21.41,21.41,0,0,1,2.4.1,1.81,1.81,0,0,1,1.77,1.65,35,35,0,0,1,0,6.94,1.81,1.81,0,0,1-1.71,1.73,17.11,17.11,0,0,1-2.15.12H45.71Z"/><path class="cls-12" d="M46,278.41c3.52,0,7,0,10.56,0,2.9,0,3.37.49,3.42,3.33,0,1.59.06,3.2,0,4.79s-.65,2.2-2.39,2.37c-.64.06-1.28,0-1.92,0H36c-.71,0-1.44,0-2.15-.08a2,2,0,0,1-2-1.95,45.07,45.07,0,0,1,0-6.47,2,2,0,0,1,2-2c.71-.05,1.43-.07,2.15-.08H46Z"/><path class="cls-11" d="M45.83,400.31c-3.6,0-7.2,0-10.8,0-2.83,0-3.29-.52-3.34-3.42,0-1.59-.05-3.2.06-4.79S32.4,390,34,389.82a13.48,13.48,0,0,1,1.68-.06H56.05c.64,0,1.28,0,1.91.08a1.89,1.89,0,0,1,1.92,1.79,34.19,34.19,0,0,1,0,6.71c-.14,1.41-.77,1.88-2.54,1.92-3,.08-6.08,0-9.12.05H45.83Z"/><path class="cls-12" d="M45.83,309.12c-3.52,0-7,0-10.55,0-3.12,0-3.55-.48-3.59-3.67,0-1.52-.05-3.05.06-4.56s.66-2.07,2.24-2.26a15.63,15.63,0,0,1,1.68-.06H56.05c.64,0,1.28,0,1.91.08a1.9,1.9,0,0,1,1.92,1.79,34.19,34.19,0,0,1,0,6.71c-.14,1.41-.77,1.88-2.54,1.92-3,.08-6.08,0-9.11.05Z"/><path class="cls-12" d="M45.92,261.61c3.59,0,7.19,0,10.79,0,2.74,0,3.2.52,3.27,3.24,0,1.44.05,2.88,0,4.31-.09,2.41-.59,2.87-3,3-.64,0-1.28,0-1.92,0H36.29c-.72,0-1.44,0-2.16-.05-1.74-.16-2.28-.64-2.38-2.37s-.1-3.68,0-5.51c.09-2,.64-2.55,2.68-2.58,3.83-.08,7.67,0,11.51,0Z"/><path class="cls-11" d="M45.82,362.88c-3.51,0-7,0-10.55,0-3.13,0-3.54-.47-3.58-3.67,0-1.36-.05-2.72.06-4.07.12-1.6.66-2.08,2.24-2.27a13.25,13.25,0,0,1,1.67-.06H56.05c.64,0,1.28,0,1.91.08a1.9,1.9,0,0,1,1.92,1.8,29.39,29.39,0,0,1,0,6.22c-.15,1.41-.78,1.88-2.55,1.92-3,.08-6.07,0-9.11.05Z"/><path class="cls-11" d="M45.84,420c-3.6,0-7.2,0-10.79,0-2.85,0-3.3-.51-3.36-3.4,0-1.44-.05-2.88.06-4.32.12-1.6.65-2.08,2.22-2.28a13.75,13.75,0,0,1,1.44-.06H56.27a13.75,13.75,0,0,1,1.44.06c1.58.2,2.11.68,2.22,2.28a45.21,45.21,0,0,1,0,4.8c-.08,2.3-.59,2.84-2.86,2.91-2.55.07-5.11,0-7.67,0h-3.6Z"/><path class="cls-6" d="M101.35,506.36a2.93,2.93,0,0,1,2.1,3.1c-.13,1.57-1.24,2.31-2.64,2.71a5.32,5.32,0,0,1-.69-.16c-1.78-.64-2.56-1.62-2.41-3s1-2.15,2.7-2.53C100.72,506.4,101,506.39,101.35,506.36Z"/><path class="cls-6" d="M73.06,509.1A3,3,0,0,1,70.35,512a2.85,2.85,0,0,1-2.95-2.82,3.09,3.09,0,0,1,3-2.9A3,3,0,0,1,73.06,509.1Z"/><path class="cls-6" d="M73.07,560a2.81,2.81,0,0,1-5.62.2,2.78,2.78,0,0,1,2.85-2.85A2.65,2.65,0,0,1,73.07,560Z"/><path class="cls-6" d="M12.32,509.32A2.78,2.78,0,0,1,9.52,512a2.86,2.86,0,0,1,.05-5.7A3.15,3.15,0,0,1,12.32,509.32Z"/><path class="cls-6" d="M42.61,509.13A2.74,2.74,0,0,1,40,512a2.83,2.83,0,0,1-2.84-2.87,3.11,3.11,0,0,1,3-2.85A2.68,2.68,0,0,1,42.61,509.13Z"/><path class="cls-7" d="M100.89,531.78c2,.79,2.72,1.72,2.57,3.16s-1.26,2.37-3.64,2.6a8.18,8.18,0,0,1-1.31-1,2.69,2.69,0,0,1,1-4.44A6.85,6.85,0,0,1,100.89,531.78Z"/><path class="cls-6" d="M70.15,537.39a2.72,2.72,0,0,1-2.7-2.75,2.77,2.77,0,0,1,3-2.68,2.59,2.59,0,0,1,2.58,2.57A2.92,2.92,0,0,1,70.15,537.39Z"/><path class="cls-6" d="M39.81,532a2.57,2.57,0,0,1,2.76,2.64A2.73,2.73,0,1,1,39.81,532Z"/><path class="cls-6" d="M42.56,560.21a2.72,2.72,0,1,1-2.67-2.77A2.7,2.7,0,0,1,42.56,560.21Z"/><path class="cls-6" d="M9.54,537.44a2.72,2.72,0,1,1,2.78-2.67A2.7,2.7,0,0,1,9.54,537.44Z"/><path class="cls-6" d="M12,561.69a5.91,5.91,0,0,1-1.1.91,2.78,2.78,0,0,1-3.62-.81,2.89,2.89,0,0,1,.47-3.88A6.25,6.25,0,0,1,9,557.2C12.09,558,12.57,558.65,12,561.69Z"/><path class="cls-1" d="M100.81,499.2v6.72A10.94,10.94,0,0,1,100.81,499.2Z"/><path class="cls-4" d="M417.6,461.76c3.43,0,6.86,0,10.29,0,2.57,0,3.1.55,3.12,3.12q.06,9.09,0,18.18c0,2.58-.54,3.09-3.11,3.13-3.43.05-6.86,0-10.28,0Q417.61,474,417.6,461.76Z"/><path class="cls-4" d="M417.61,566.89c3.43,0,6.86,0,10.29,0,2.56,0,3.09.55,3.11,3.12q.06,9.09,0,18.19c0,2.57-.55,3.08-3.12,3.12-3.43,0-6.86,0-10.29,0Q417.62,579.13,417.61,566.89Z"/><path class="cls-4" d="M417.61,540.5c3.43,0,6.86,0,10.29,0,2.57,0,3.09.55,3.11,3.13q.06,9.09,0,18.18c0,2.57-.55,3.08-3.12,3.12-3.43,0-6.86,0-10.29,0Q417.62,552.72,417.61,540.5Z"/><path class="cls-4" d="M417.62,514.11c3.34,0,6.69-.05,10,0,2.78,0,3.34.6,3.36,3.43q.06,9,0,17.91c0,2.55-.56,3.06-3.14,3.1-3.43.05-6.85,0-10.27,0Q417.6,526.33,417.62,514.11Z"/><path class="cls-4" d="M417.59,488.15c3.43,0,6.85,0,10.28,0,2.58,0,3.12.55,3.14,3.1q.06,9,0,17.91c0,2.83-.58,3.39-3.36,3.43-3.34,0-6.69,0-10,0Z"/><path class="cls-4" d="M425.77,434.4c1.78,3.77,3.28,7.69,5.74,11.11A8.63,8.63,0,0,0,431,449c0,2.71,0,5.42-.05,8.13-.07,2-.62,2.57-2.62,2.62-3.58.08-7.17,0-10.76,0q0-10.31,0-20.6a13.41,13.41,0,0,1,.06-1.68c.2-1.47.65-2,2.12-2.12,1.11-.11,2.23-.07,3.35-.09A3.52,3.52,0,0,0,425.77,434.4Z"/><path class="cls-4" d="M418.56,408.48c.43,2.34.83,4.68,1.29,7,1.21,6.17,3.38,12.05,5.42,18-1.68,0-3.36,0-5-.06-2-.1-2.55-.63-2.6-2.64-.08-3.19,0-6.38-.05-9.58,0-3,0-6.06,0-9.09A5.3,5.3,0,0,1,418.56,408.48Z"/><path class="cls-6" d="M406.81,585.51a2.76,2.76,0,0,1-2.61,2.84,2.91,2.91,0,0,1-3.15-2.58,2.88,2.88,0,0,1,5.76-.26Z"/><path class="cls-6" d="M373.61,588.36a2.75,2.75,0,0,1-2.82-2.68,2.8,2.8,0,0,1,2.88-2.87,2.72,2.72,0,0,1,2.83,2.65A2.86,2.86,0,0,1,373.61,588.36Z"/><path class="cls-6" d="M376.5,560.1a2.86,2.86,0,1,1-2.73-2.73A2.69,2.69,0,0,1,376.5,560.1Z"/><path class="cls-6" d="M403.91,562.88A2.8,2.8,0,0,1,401.1,560a2.71,2.71,0,0,1,2.88-2.58,2.79,2.79,0,0,1,2.83,2.9A2.83,2.83,0,0,1,403.91,562.88Z"/><path class="cls-6" d="M404,512a3.06,3.06,0,0,1-2.84-3,2.91,2.91,0,0,1,3-2.72,3,3,0,0,1,2.68,3.08A2.78,2.78,0,0,1,404,512Z"/><path class="cls-6" d="M373.34,512a2.8,2.8,0,0,1-2.55-2.9,3,3,0,0,1,3-2.77,2.87,2.87,0,0,1,2.69,3A3,3,0,0,1,373.34,512Z"/><path class="cls-6" d="M373.72,537.44a2.85,2.85,0,0,1-2.93-2.56,2.79,2.79,0,0,1,2.77-3,2.71,2.71,0,0,1,2.93,2.51A2.94,2.94,0,0,1,373.72,537.44Z"/><path class="cls-6" d="M403.89,537.44a2.93,2.93,0,0,1-2.78-3,2.71,2.71,0,0,1,2.92-2.52,2.78,2.78,0,0,1,2.77,3A2.83,2.83,0,0,1,403.89,537.44Z"/><path class="cls-6" d="M346,509a2.76,2.76,0,0,1-2.71,3,2.83,2.83,0,0,1-2.79-2.7,2.93,2.93,0,0,1,2.78-3A2.65,2.65,0,0,1,346,509Z"/><path class="cls-6" d="M343.28,531.93a2.46,2.46,0,0,1,2.71,2.63,2.75,2.75,0,1,1-5.49.06A2.72,2.72,0,0,1,343.28,531.93Z"/><path class="cls-6" d="M313.9,512.21l-.47-.06c-1.5-.16-2.8-.66-3.19-2.29a3,3,0,0,1,1.72-3.52l.48,0c1.42.09,2.7.43,3.15,2a3.19,3.19,0,0,1-1.33,3.54Z"/><path class="cls-6" d="M346,560.14a2.75,2.75,0,1,1-2.66-2.74A2.61,2.61,0,0,1,346,560.14Z"/><path class="cls-6" d="M484.27,54.3q1.53,4.59,3,9.17a11,11,0,0,1-6.36-7.3Q477,45,473.05,33.78,467.4,17.87,461.71,1.94c1.14-1.26,2.45-1,3.8-.43,1.47-.08,1.56,1.18,1.9,2.07,2.26,5.9,4.27,11.89,6.42,17.83,3.23,8.94,6.26,18,9.63,26.86C484.23,50.29,484,52.3,484.27,54.3Z"/><path class="cls-6" d="M453.52,1.45a4.68,4.68,0,0,1,3.91,0q4.72,13.46,9.45,26.91,4,11.42,8.07,22.82a3.64,3.64,0,0,1,.29,2c-2.32-1.83-4.59-3.25-5.57-6.08-2.31-6.72-4.75-13.4-7.12-20.1Q458,14.23,453.52,1.45Z"/><path class="cls-6" d="M445.45,1h3.81l.06.49c.15.17.29.34.42.52,1.66,5.68,3.84,11.19,5.79,16.78,2.59,7.4,5.22,14.78,7.83,22.17a1.72,1.72,0,0,1,.12,1.56c-2.36-1.78-4.63-3.4-5.68-6.43C454,25,450,14,446.1,3,445.86,2.34,445.67,1.65,445.45,1Z"/><path class="cls-6" d="M437.71,1.94c1.15-1.26,2.46-1,3.82-.44,1.68,5.59,3.85,11,5.75,16.53,1.28,3.7,2.64,7.37,3.92,11.07.24.72.77,1.43.26,2.49-2.3-1.58-4.33-3.23-5.29-5.95-2.1-5.95-4.24-11.89-6.36-17.83Z"/><path class="cls-6" d="M429.48,1.46a4.56,4.56,0,0,1,3.92,0L440,20.6l-.55.31c-1.94-1.76-4.25-3.15-5.19-5.89C432.7,10.49,431.08,6,429.48,1.46Z"/><path class="cls-7" d="M421.44,1l3.82,0c0,.15,0,.31.05.46.27.26.15.71.45,1,.67,2.6,2,5,2.51,7.94A12.91,12.91,0,0,1,421.44,1Z"/><path class="cls-1" d="M425.75,2.41c-.14-.32-.29-.64-.44-1C425.46,1.77,425.61,2.09,425.75,2.41Z"/><path class="cls-1" d="M449.74,2l-.42-.52Z"/><path class="cls-1" d="M207.35,401.81a80.24,80.24,0,0,0,2.79,17,105.26,105.26,0,0,0,22.12,42.92c17.78,20.84,40.36,33,67.49,36.82,1,.15,2.07.12,3.11.18.24.18.59.25.67.67a4.4,4.4,0,0,1-2.3.24q-45,0-90,0c-4.15,0-4.36-.21-4.36-4.32q0-44.74,0-89.49A10.38,10.38,0,0,1,207.35,401.81Z"/><path class="cls-7" d="M252.16,588.39a2.81,2.81,0,1,1,.31-5.61,2.81,2.81,0,0,1,2.68,2.83A2.86,2.86,0,0,1,252.16,588.39Z"/><path class="cls-7" d="M100.58,588.39a2.81,2.81,0,1,1,2.89-2.89A2.86,2.86,0,0,1,100.58,588.39Z"/><path class="cls-7" d="M100.55,562.94a2.87,2.87,0,0,1-2.88-2.9,2.9,2.9,0,0,1,5.8,0A2.87,2.87,0,0,1,100.55,562.94Z"/><path class="cls-7" d="M252.19,562.94a2.87,2.87,0,0,1-2.81-3,2.89,2.89,0,0,1,5.77.15A2.88,2.88,0,0,1,252.19,562.94Z"/><path class="cls-7" d="M252.25,537.48a2.86,2.86,0,0,1-2.86-2.9,2.77,2.77,0,0,1,2.77-2.72,2.82,2.82,0,0,1,3,2.76A2.86,2.86,0,0,1,252.25,537.48Z"/><path class="cls-7" d="M252.24,512a3,3,0,0,1-2.85-2.93,2.94,2.94,0,0,1,2.94-2.82,3,3,0,0,1,2.83,2.93A2.89,2.89,0,0,1,252.24,512Z"/><path class="cls-6" d="M222,506.31a2.85,2.85,0,0,1,2.83,2.71,3,3,0,0,1-2.84,3,2.86,2.86,0,1,1,0-5.71Z"/><path class="cls-7" d="M70.29,582.78a2.81,2.81,0,1,1-2.91,2.83A2.81,2.81,0,0,1,70.29,582.78Z"/><path class="cls-6" d="M128.08,509.21a2.82,2.82,0,0,1,2.81-2.94,2.94,2.94,0,0,1,2.88,2.67,2.85,2.85,0,1,1-5.69.27Z"/><path class="cls-7" d="M221.84,537.47a2.81,2.81,0,1,1,.34-5.6,2.73,2.73,0,0,1,2.64,2.82A2.9,2.9,0,0,1,221.84,537.47Z"/><path class="cls-7" d="M222,588.41a2.82,2.82,0,0,1-2.88-2.86,2.87,2.87,0,0,1,5.73,0A2.82,2.82,0,0,1,222,588.41Z"/><path class="cls-7" d="M221.94,562.94a2.87,2.87,0,0,1-2.87-2.89,2.82,2.82,0,0,1,3-2.73,2.72,2.72,0,0,1,2.73,2.72A2.87,2.87,0,0,1,221.94,562.94Z"/><path class="cls-6" d="M133.77,560A2.86,2.86,0,0,1,131,563a2.94,2.94,0,0,1-2.9-2.88,2.75,2.75,0,0,1,2.72-2.74A2.78,2.78,0,0,1,133.77,560Z"/><path class="cls-7" d="M164.08,509.21a2.81,2.81,0,0,1-5.62,0,2.77,2.77,0,0,1,2.8-2.91A2.86,2.86,0,0,1,164.08,509.21Z"/><path class="cls-6" d="M133.77,585.45a2.86,2.86,0,1,1-3-2.66A2.78,2.78,0,0,1,133.77,585.45Z"/><path class="cls-7" d="M194.37,509a2.8,2.8,0,0,1-2.74,3,2.87,2.87,0,1,1,.05-5.73A2.71,2.71,0,0,1,194.37,509Z"/><path class="cls-7" d="M285.46,509.26a2.89,2.89,0,0,1-3,2.75,2.83,2.83,0,0,1-2.6-3.11,2.7,2.7,0,0,1,2.82-2.62A2.92,2.92,0,0,1,285.46,509.26Z"/><path class="cls-6" d="M346,585.69a2.69,2.69,0,0,1-2.76,2.71,2.81,2.81,0,1,1,.2-5.61A2.7,2.7,0,0,1,346,585.69Z"/><path class="cls-7" d="M131,537.47a2.87,2.87,0,0,1-2.88-2.86,2.65,2.65,0,0,1,2.66-2.75,2.82,2.82,0,0,1,3,2.68A2.88,2.88,0,0,1,131,537.47Z"/><path class="cls-6" d="M282.52,588.4a2.81,2.81,0,0,1,.26-5.61,2.81,2.81,0,1,1-.26,5.61Z"/><path class="cls-6" d="M315.76,534.54a2.81,2.81,0,1,1-5.61.24,2.81,2.81,0,0,1,5.61-.24Z"/><path class="cls-6" d="M161.35,557.34a2.8,2.8,0,1,1-2.88,2.57A2.68,2.68,0,0,1,161.35,557.34Z"/><path class="cls-6" d="M194.35,585.51a2.8,2.8,0,1,1-2.73-2.72A2.68,2.68,0,0,1,194.35,585.51Z"/><path class="cls-6" d="M191.53,562.94a2.81,2.81,0,1,1,.07-5.61,2.68,2.68,0,0,1,2.75,2.7A2.78,2.78,0,0,1,191.53,562.94Z"/><path class="cls-6" d="M282.56,557.33a2.78,2.78,0,0,1,2.9,2.59,2.85,2.85,0,0,1-2.73,3,2.8,2.8,0,0,1-2.87-2.87A2.61,2.61,0,0,1,282.56,557.33Z"/><path class="cls-6" d="M40,588.4a2.81,2.81,0,1,1-.22-5.61,2.69,2.69,0,0,1,2.89,2.56A2.79,2.79,0,0,1,40,588.4Z"/><path class="cls-6" d="M164.07,534.72a2.8,2.8,0,1,1-5.6-.11,2.68,2.68,0,0,1,2.72-2.73A2.77,2.77,0,0,1,164.07,534.72Z"/><path class="cls-7" d="M279.86,534.63a2.58,2.58,0,0,1,2.65-2.77,2.79,2.79,0,0,1,2.95,2.78,2.88,2.88,0,0,1-2.71,2.82A2.76,2.76,0,0,1,279.86,534.63Z"/><path class="cls-6" d="M161.35,588.39a2.8,2.8,0,1,1,2.72-3A2.78,2.78,0,0,1,161.35,588.39Z"/><path class="cls-6" d="M194.35,534.76a2.74,2.74,0,0,1-2.76,2.71,2.85,2.85,0,0,1-2.84-2.91,2.78,2.78,0,0,1,3-2.67A2.67,2.67,0,0,1,194.35,534.76Z"/><path class="cls-6" d="M12.39,585.58a2.79,2.79,0,0,1-2.91,2.81,2.8,2.8,0,0,1,0-5.6A2.8,2.8,0,0,1,12.39,585.58Z"/><path class="cls-6" d="M315.76,585.7a2.8,2.8,0,1,1-2.58-2.9A2.79,2.79,0,0,1,315.76,585.7Z"/><path class="cls-6" d="M315.75,560.2a2.8,2.8,0,1,1-2.61-2.86A2.78,2.78,0,0,1,315.75,560.2Z"/><path class="cls-3" d="M499.19,39.85c-2.19.07-2.62,1.65-2.88,3.37-1.51.91-1.54-.42-1.83-1.24q-5.14-14.32-10.17-28.68C483.2,10.13,481.92,7,481,3.8c-.29-1-.74-2,.42-2.79a10.59,10.59,0,0,1,4.25-.52H667c1.67,0,3.37-.18,5,.49H523.49c-.4,0-.8,0-1.2,0a3.16,3.16,0,0,0-3.55,2.51,104.6,104.6,0,0,1-4.44,11.14,56.91,56.91,0,0,1-3,6,4.88,4.88,0,0,0-1,3.36c0,.34-.12.53-.49.5-1.25.68-1.73,2.14-2.91,2.87-.57.46-1.11.68-1.52-.19-.27-.57-.55-1.14-.77-1.74-1.26-3.34-2-6.94-4.47-8.93a124.33,124.33,0,0,1,5.13,14.37c.22.72.14,1.27-.78,1.32L501.57,35c-1.47,1.09-1.57-.36-1.88-1.1-1.74-4.21-3.08-8.57-4.63-12.85-1.23-3.38-2.5-6.75-3.59-10.18a12.28,12.28,0,0,0-2.85-4.71c3.77,10.54,7.62,21.25,11.37,32C500.27,39,500.45,39.78,499.19,39.85Z"/><path class="cls-6" d="M481.4,1q5.27,15,10.54,30c1.43,4.07,2.91,8.11,4.37,12.17q4.85,13.8,9.7,27.6c1.4,4,2.83,8,4.22,12a3.29,3.29,0,0,1,.37,2.46c-2.42-2-4.7-3.71-5.77-6.85-3.68-10.82-7.6-21.56-11.44-32.33-1.83-1.2-2.4-3.13-3.1-5.06-4-11.16-7.81-22.4-11.92-33.53-.44-1.2-.82-2.41-1.19-3.63a2.18,2.18,0,0,1,.41-2.43A7.73,7.73,0,0,1,481.4,1Z"/><path class="cls-6" d="M675.92,1.47,652.34,68.14q-2,5.64-4,11.29a9.3,9.3,0,0,1-5.15,5.22,1.3,1.3,0,0,1-.15-.18.64.64,0,0,1,0-.24.6.6,0,0,1,0-.23c0-.24.11-.47.18-.7s.2-.61.31-.91L672.09,1.48A4.3,4.3,0,0,1,675.92,1.47Z"/><path class="cls-6" d="M490.05,48c1.46,5.07,3.46,9.95,5.16,14.93,1.06,3.1,2.2,6.17,3.28,9.26a2.32,2.32,0,0,1,.19,2.05c-2.24-1.45-4.3-2.92-5.22-5.55q-2.5-7.12-5-14.23c-.38-1-.8-2.08-1.2-3.13a5.26,5.26,0,0,1-2.13-2.44c-5.48-15.16-10.77-30.39-16.21-45.57-.32-.89-.76-1.87.58-2.38l3.79,0a6.38,6.38,0,0,1,.72.19,1.14,1.14,0,0,1,.85.64c4.89,13.54,9.6,27.14,14.51,40.67C490,44.27,490.7,46.05,490.05,48Z"/><path class="cls-6" d="M684,1.45q-11.81,33.23-23.58,66.46c-1,2.9-3.06,4.71-5.53,6.5a2.83,2.83,0,0,1,.25-2.42q6.71-18.88,13.42-37.74,5.82-16.39,11.63-32.78A4.36,4.36,0,0,1,684,1.45Z"/><path class="cls-6" d="M692.16,1q-5.35,15.13-10.71,30.27Q676.92,44,672.36,56.75a11.86,11.86,0,0,1-5.82,7c-.48-.64,0-1.22.18-1.76q8.89-25.06,17.82-50.13c1.28-3.62,2.53-7.24,3.79-10.86Z"/><path class="cls-3" d="M469.45,1l8.6,24.41q4.57,13,9.16,26a3.59,3.59,0,0,0-2.94,2.95c-1.67-4.57-3.36-9.14-5-13.72q-6.6-18.49-13.15-37c-.24-.68-.41-1.38-.61-2.07C466.67.27,468.05.53,469.45,1Z"/><path class="cls-3" d="M490.05,48C488,43.09,486.36,38,484.54,33c-3.29-9.08-6.5-18.2-9.72-27.31-.43-1.2-.73-2.44-1.09-3.67a3.42,3.42,0,0,0-.42-.52c0-.16-.05-.31-.07-.47a4.76,4.76,0,0,1,4.35.46q7.91,22.32,15.8,44.65C491.85,46,491,47.13,490.05,48Z"/><path class="cls-6" d="M699.87,1.94c-5.28,14.92-10.62,29.82-15.79,44.78-1,3-3.42,4.45-5.43,6.37-.23-.17-.31-.2-.35-.26a.29.29,0,0,1,0-.22,10.8,10.8,0,0,1,.31-1.15Q687.29,26.7,696,1.94C697.32.89,698.59.58,699.87,1.94Z"/><path class="cls-6" d="M708,1.45C703.94,13,699.81,24.45,695.8,36c-1,2.84-3,4.55-5.42,6.24-.52-1,0-1.7.24-2.39Q696.88,22.1,703.17,4.4c.35-1,.68-2,1-2.94A4.45,4.45,0,0,1,708,1.45Z"/><path class="cls-6" d="M716.16,1q-4.41,12.42-8.81,24.84c-1,2.72-3.21,4.14-5.16,5.88l-.56-.33Q707,16.15,712.33,1Z"/><path class="cls-6" d="M723.9,2c-1.4,4-2.94,7.91-4.15,12-1,3.21-3.19,5.17-5.89,7.1a4.35,4.35,0,0,1,.52-2.85c1.86-5.41,3.77-10.81,5.66-16.22a6.55,6.55,0,0,0,.39-.53c0-.15,0-.3,0-.45C721.69,1,723,.84,723.9,2Z"/><path class="cls-7" d="M732,1.46c-.81,3.16-2.19,6-5,7.82-.38.25-.68.71-1.57.41.7-2.8,1.95-5.45,2.78-8.22A4.32,4.32,0,0,1,732,1.46Z"/><path class="cls-4" d="M444.76,591.35c-3,0-6.07,0-9.11,0-2.58,0-3.12-.54-3.13-3.12q-.07-9.11,0-18.23c0-2.55.55-3.07,3.16-3.08q9.35-.06,18.71,0c2.46,0,3,.54,3,3q.08,9.24,0,18.47c0,2.42-.57,2.92-3,3-3.2,0-6.4,0-9.6,0Z"/><path class="cls-4" d="M576.34,591.36c-3,0-5.91,0-8.87,0s-3.42-.48-3.44-3.31q-.06-9,0-18c0-2.59.54-3.12,3.1-3.14q9.36-.06,18.71,0c2.55,0,3.06.55,3.08,3.17q.06,9,0,18c0,2.76-.51,3.23-3.23,3.27C582.58,591.39,579.46,591.36,576.34,591.36Z"/><path class="cls-4" d="M576.44,538.56c-3,0-6.07,0-9.1,0-2.77,0-3.29-.51-3.3-3.19q-.07-9,0-18c0-2.69.59-3.27,3.26-3.29q9.23-.07,18.44,0c2.54,0,3.15.62,3.17,3.13q.09,9.21,0,18.43c0,2.27-.59,2.81-2.89,2.86-3.19.06-6.39,0-9.58,0Z"/><path class="cls-4" d="M444.82,565c-3,0-6.07,0-9.1,0-2.71,0-3.19-.52-3.21-3.28q-.06-8.86,0-17.72c0-2.83.58-3.41,3.37-3.43q9.11-.06,18.2,0c2.7,0,3.3.6,3.32,3.24q.08,9.09,0,18.2c0,2.44-.55,2.94-3,3-3.19,0-6.38,0-9.57,0Z"/><path class="cls-4" d="M576.4,565c-3.11,0-6.23,0-9.34,0-2.46-.05-3-.55-3-3,0-6.14,0-12.29,0-18.43,0-2.38.64-3,3.05-3q9.35-.07,18.68,0c2.51,0,3.11.63,3.14,3.16q.08,9.11,0,18.2c0,2.54-.56,3-3.18,3.06-3.11,0-6.23,0-9.34,0Z"/><path class="cls-4" d="M444.9,538.56c-3.12,0-6.23,0-9.34,0-2.46,0-3-.55-3-3q-.07-9.21,0-18.43c0-2.4.63-3,3-3q9.45-.09,18.92,0c2.23,0,2.88.67,2.9,2.9q.09,9.33,0,18.67c0,2.26-.6,2.79-2.92,2.84-3.19.06-6.38,0-9.57,0Z"/><path class="cls-4" d="M445,488.16c3.11,0,6.22,0,9.33,0,2.57,0,3.1.56,3.12,3.13q.08,9,0,18c0,2.78-.6,3.33-3.45,3.35q-9,.06-18,0c-2.93,0-3.46-.57-3.48-3.56q-.06-8.74,0-17.48c0-2.9.49-3.37,3.34-3.4,3-.05,6.06,0,9.1,0Z"/><path class="cls-4" d="M523.94,538.56c-3,0-6.08,0-9.12,0-2.57,0-3.1-.56-3.12-3.14q-.06-9.12,0-18.24c0-2.47.55-3,2.95-3q9.24-.07,18.48,0c2.46,0,3,.54,3,3,0,6.16,0,12.32,0,18.47,0,2.38-.6,2.91-3.06,2.95C530,538.6,527,538.56,523.94,538.56Z"/><path class="cls-4" d="M509.76,526.34c0,3,0,5.92,0,8.88,0,2.78-.51,3.31-3.19,3.33q-9.1.06-18.23,0c-2.46,0-3-.55-3-3q-.07-9.24,0-18.48c0-2.41.57-2.93,3.05-3q9.11-.07,18.23,0c2.6,0,3.11.55,3.15,3.11.05,3,0,6.08,0,9.12Z"/><path class="cls-4" d="M602.63,591.36c-2.88,0-5.76,0-8.64,0-3.08,0-3.55-.45-3.57-3.43q0-8.88,0-17.75c0-2.76.5-3.25,3.23-3.27q9-.06,18,0c2.7,0,3.19.53,3.21,3.29q.06,9,0,18c0,2.58-.55,3.1-3.11,3.14-3,0-6.08,0-9.12,0Z"/><path class="cls-4" d="M536.14,579.35c0,3,.05,5.92,0,8.88,0,2.57-.55,3.09-3.14,3.11q-9.12.06-18.24,0c-2.47,0-3-.55-3-3q-.07-9.23,0-18.47c0-2.45.55-3,3-3q9.12-.07,18.24,0c2.68,0,3.14.53,3.18,3.32,0,3,0,6.08,0,9.12Z"/><path class="cls-4" d="M509.75,579.12c0,3,0,6.08,0,9.12-.05,2.56-.56,3.08-3.16,3.1q-9.12.06-18.24,0c-2.47,0-3-.54-3-3q-.07-9.24,0-18.47c0-2.43.56-3,3-3q9.12-.07,18.24,0c2.6,0,3.11.53,3.16,3.09C509.79,573,509.75,576.08,509.75,579.12Z"/><path class="cls-4" d="M470.92,591.35c-3,0-5.92,0-8.88,0-2.58,0-3.11-.55-3.13-3.12q-.06-9.12,0-18.24c0-2.55.55-3.06,3.18-3.07,6,0,12,0,18,0,2.75,0,3.25.51,3.27,3.25q.06,9,0,18c0,2.7-.53,3.17-3.3,3.21C477,591.39,474,591.36,470.92,591.35Z"/><path class="cls-4" d="M538.08,578.88c0-3,0-5.92,0-8.88,0-2.55.56-3.08,3.16-3.09q9.12-.06,18.24,0c2.47,0,3,.54,3,3q.08,9.24,0,18.47c0,2.43-.56,3-3,3q-9.12.06-18.24,0c-2.59,0-3.11-.55-3.15-3.1C538,585.12,538.08,582,538.08,578.88Z"/><path class="cls-4" d="M590.42,552.72c0-3,0-6.08,0-9.12.05-2.56.55-3.07,3.16-3.09q9.12-.06,18.24,0c2.47,0,3,.54,3,3q.07,9.24,0,18.48c0,2.42-.57,2.95-3,3q-9.24.06-18.48,0c-2.3,0-2.85-.58-2.9-2.85-.06-3.12,0-6.24,0-9.36Z"/><path class="cls-4" d="M550.32,540.5c3,0,6.08,0,9.12,0,2.56,0,3.07.55,3.09,3.16q.06,9.12,0,18.24c0,2.47-.54,3-3,3q-9.24.08-18.48,0c-2.42,0-3-.57-3-3q-.08-9.24,0-18.48c0-2.3.59-2.85,2.86-2.9,3.12-.06,6.24,0,9.36,0Z"/><path class="cls-4" d="M536.14,552.71c0,3,0,6.08,0,9.11,0,2.58-.55,3.1-3.14,3.12q-9.11.06-18.23,0c-2.48,0-3-.55-3.05-3q-.07-9.24,0-18.48c0-2.44.54-3,3-3q9.24-.07,18.48,0c2.39,0,2.89.58,2.93,3.07C536.18,546.63,536.14,549.67,536.14,552.71Z"/><path class="cls-4" d="M509.75,552.72c0,3,0,6.08,0,9.12-.05,2.56-.56,3.08-3.16,3.1q-9.12.06-18.23,0c-2.48,0-3-.55-3-3q-.07-9.24,0-18.48c0-2.43.55-3,3-3q9.12-.07,18.23,0c2.61,0,3.12.54,3.17,3.09C509.79,546.64,509.75,549.68,509.75,552.72Z"/><path class="cls-4" d="M471.13,540.5c3,0,6.08,0,9.11,0,2.55,0,3.09.58,3.1,3.17q.06,9.12,0,18.23c0,2.47-.55,3-3,3q-9.24.08-18.47,0c-2.43,0-2.95-.56-3-3q-.06-9.23,0-18.47c0-2.31.57-2.85,2.85-2.9,3.12-.06,6.24,0,9.36,0Z"/><path class="cls-4" d="M483.36,526.37c0,3,0,5.91,0,8.87,0,2.77-.51,3.29-3.19,3.31q-9,.06-18,0c-2.74,0-3.25-.51-3.26-3.23,0-5.92-.05-11.83,0-17.74,0-2.92.57-3.45,3.58-3.47q8.75-.06,17.5,0c2.87,0,3.32.5,3.36,3.38S483.36,523.41,483.36,526.37Z"/><path class="cls-4" d="M590.42,500.16c0-3,0-5.92,0-8.87.05-2.57.56-3.1,3.14-3.12q9.1-.06,18.22,0c2.47,0,3,.55,3.07,2.94q.07,9.22,0,18.46c0,2.46-.55,3-3,3q-9.11.07-18.22,0c-2.64,0-3.18-.62-3.23-3.33C590.38,506.23,590.42,503.2,590.42,500.16Z"/><path class="cls-4" d="M550.08,514.1c3,0,5.91,0,8.87,0s3.56.55,3.58,3.47q.06,8.86,0,17.74c0,2.72-.52,3.21-3.27,3.23q-9,.06-18,0c-2.62,0-3.16-.54-3.18-3.08q-.08-9.11,0-18.22c0-2.58.54-3.09,3.11-3.14,2.95-.05,5.91,0,8.87,0Z"/><path class="cls-4" d="M602.4,538.56c-3,0-5.92,0-8.87,0-2.56,0-3.08-.56-3.1-3.16q-.06-9,0-18c0-2.69.6-3.27,3.27-3.29q9-.07,18,0c2.68,0,3.17.54,3.19,3.31q.06,8.88,0,17.74c0,2.88-.5,3.35-3.36,3.39-3,0-6.07,0-9.11,0Z"/><path class="cls-4" d="M564,491.52l8.2-3.84a9.45,9.45,0,0,0,3.54.47c3.35,0,6.71,0,10.06,0,2.57,0,3.1.56,3.12,3.13q.08,9,0,18c0,2.71-.59,3.31-3.23,3.33q-9.23.07-18.45,0c-2.62,0-3.18-.63-3.2-3.35C564,503.34,564,497.43,564,491.52Z"/><path class="cls-4" d="M475.16,487.68l8.23,3.88q0,7.92,0,15.83c0,.72,0,1.44,0,2.16-.1,2.47-.56,2.94-3,3.06h-18a11.46,11.46,0,0,1-1.43-.1,2.07,2.07,0,0,1-2-2c-.06-.63-.09-1.28-.09-1.91,0-5.52,0-11,0-16.55a13.85,13.85,0,0,1,0-1.44c.18-1.73.65-2.22,2.38-2.39.63-.06,1.28-.05,1.92-.05h8.63A8.81,8.81,0,0,0,475.16,487.68Z"/><path class="cls-4" d="M442.1,461.29c4.58,5,9.19,10,14.57,14.2.44.34.83.74,1.24,1.12a10,10,0,0,0-.48,3.77c0,1.2,0,2.39-.09,3.59a2.1,2.1,0,0,1-2.1,2.17c-.63.06-1.27.09-1.91.09H436.59c-.64,0-1.28,0-1.91-.09a2.14,2.14,0,0,1-2.11-2.17c0-.48-.07-1-.07-1.44,0-5.74,0-11.48,0-17.22,0-3.11.46-3.5,3.68-3.55.95,0,1.91,0,2.87,0A8.53,8.53,0,0,0,442.1,461.29Z"/><path class="cls-4" d="M589.92,476.16a105.36,105.36,0,0,0,15.35-14.88c1.7.66,3.47.42,5.22.47.72,0,1.45,0,2.16.07,1.49.18,2,.64,2.16,2.08a9.92,9.92,0,0,1,.07,1.44q0,8.63,0,17.26a13.25,13.25,0,0,1-.09,1.67,1.92,1.92,0,0,1-1.85,1.86,15.44,15.44,0,0,1-1.92.1H594.24a13.25,13.25,0,0,1-1.67-.07c-1.47-.2-2-.65-2.08-2.15s-.07-2.88-.08-4.31A9,9,0,0,0,589.92,476.16Z"/><path class="cls-4" d="M536.16,498.72c1.59-.65,3.31-.46,5-.75a104.08,104.08,0,0,0,21.45-6q0,8.13,0,16.26a23.71,23.71,0,0,1-.12,2.38,2,2,0,0,1-1.88,1.86,6,6,0,0,1-.95.09c-6.21,0-12.43,0-18.65,0-2.26,0-2.79-.59-2.85-2.89-.07-2.71,0-5.42-.05-8.13C538.05,500.21,537.82,499,536.16,498.72Z"/><path class="cls-4" d="M485.3,492.47c2.57.81,5.13,1.68,7.73,2.42,5.59,1.59,11.19,3.1,17,3.44a8.52,8.52,0,0,1,1.62.4c-1.51.23-1.88,1.3-1.89,2.61,0,2.64,0,5.27,0,7.9-.05,2.88-.5,3.36-3.37,3.37q-8.86.06-17.73,0c-2.86,0-3.34-.5-3.36-3.37C485.26,503.65,485.29,498.06,485.3,492.47Z"/><path class="cls-4" d="M511.67,498.73a140.07,140.07,0,0,0,24.49,0c0,3.51,0,7,0,10.53,0,2.87-.49,3.35-3.36,3.36q-8.87.06-17.71,0c-2.88,0-3.34-.49-3.38-3.35C511.65,505.75,511.67,502.24,511.67,498.73Z"/><path class="cls-4" d="M575,486.23c4.79-2.8,9.36-5.93,13.9-9.11,0,2.06,0,4.13,0,6.19-.09,2.22-.68,2.83-2.91,2.88C582.35,486.27,578.69,486.22,575,486.23Z"/><path class="cls-4" d="M458.85,477.13a124.6,124.6,0,0,0,13.47,9.09c-3.43,0-6.85,0-10.28,0-2.58,0-3.07-.54-3.14-3.1C458.85,481.12,458.87,479.13,458.85,477.13Z"/><path class="cls-4" d="M432.51,447.84c2.82,4,5.41,8.25,8.6,12-2,0-4,0-6-.06s-2.55-.62-2.6-2.63C432.46,454.06,432.51,451,432.51,447.84Z"/><path class="cls-4" d="M606.25,459.87c3.27-3.73,5.83-8,8.63-12,0,3,0,5.9,0,8.85,0,2.57-.56,3.05-3.12,3.13C609.92,459.87,608.09,459.85,606.25,459.87Z"/><path class="cls-4" d="M483.83,491.53l1,.47Z"/><path class="cls-4" d="M563,492l.49-.46Z"/><path class="cls-6" d="M607.9,56c0,2.13-29.49,85.31-31,87.73-1-.32-1.06-1.3-1.33-2.06q-3-8.24-5.91-16.49-11.53-32.44-23.06-64.89a15.87,15.87,0,0,1-1.11-3.68,9.4,9.4,0,0,1,5.39,5c1.31,3.52,2.55,7.07,3.81,10.61q10.47,29.51,20.95,59a3.16,3.16,0,0,0,1.09,1.92c.87-.29.91-1.19,1.15-1.88q5.33-14.91,10.61-29.84c4.6-13,9.26-25.91,13.76-38.91C603.3,59.55,605.64,58,607.9,56Z"/><path class="cls-6" d="M576.83,110.94a4.27,4.27,0,0,0,1.14-2.29c4.22-11.82,8.47-23.64,12.59-35.5,1-2.94,3.22-4.52,5.56-6.3a3.17,3.17,0,0,1-.37,2.52q-8.61,24.3-17.29,48.59c-.39,1.09-.47,3-1.55,3-1.4,0-1.37-1.89-1.77-3q-8.76-24.39-17.4-48.81a3,3,0,0,1-.3-2.37c2.37,1.78,4.54,3.43,5.54,6.33,2.83,8.16,5.76,16.28,8.65,24.42,1.34,3.76,2.66,7.53,4,11.29C575.93,109.53,576,110.4,576.83,110.94Z"/><path class="cls-6" d="M583.66,138.67a8.31,8.31,0,0,1,.82-3.43Q599.26,93.68,614,52.11c1-2.94,3.12-4.67,5.63-6.42a3.3,3.3,0,0,1-.34,2.62q-6.1,17.16-12.24,34.32c-5.74,16.11-11.56,32.19-17.17,48.34C588.73,134.3,586.55,136.45,583.66,138.67Z"/><path class="cls-6" d="M533.92,45.61c2.7,1.92,4.75,3.89,5.85,7,9.72,27.61,19.58,55.18,29.38,82.77a4.45,4.45,0,0,1,.45,3.09c-2.25-1.92-4.43-3.43-5.37-6.17-1.8-5.22-3.69-10.41-5.55-15.61q-12.16-34.12-24.33-68.26A3.67,3.67,0,0,1,533.92,45.61Z"/><path class="cls-6" d="M499.19,39.85Q493.6,24,488,8.24a17.6,17.6,0,0,1-1.37-4.58c2.08.52,4.56,3,5.51,5.51,1.31,3.51,2.52,7.06,3.78,10.6,1.52,4.28,3,8.57,4.59,12.85.29.83.69,1.61,1,2.42.83,3.76,2.39,7.28,3.66,10.89,5.5,15.6,11.07,31.18,16.58,46.77.29.83,1.19,2,.25,2.56-.77.48-1.39-.79-2.06-1.3a10,10,0,0,1-3.28-4.89q-8.21-23.28-16.53-46.53C499.87,41.64,499.52,40.74,499.19,39.85Z"/><path class="cls-6" d="M666.79,3.69c.32.81-.16,1.53-.41,2.25q-14.8,41.72-29.59,83.44c-1,3-3.29,4.54-5.6,6.67a5.1,5.1,0,0,1,.56-3.29q5.31-15,10.66-30.08c6.18-17.41,12.41-34.81,18.5-52.25A13.24,13.24,0,0,1,665.67,4C666,3.79,666.27,3.48,666.79,3.69Z"/><path class="cls-6" d="M504.44,32.18q-3.18-9.1-6.37-18.22l.46-.23c2.25,2,4.9,3.6,5.75,6.93a27.22,27.22,0,0,0,2.57,6.69c0,.34.06.67.1,1a2.21,2.21,0,0,1,.38.56c.28,1,.52,2,.87,3q12.24,34.48,24.5,69c.61,1.72,1.18,3.45,1.82,5.32a9.46,9.46,0,0,1-5.65-5.53c-1.82-5-3.6-10.09-5.4-15.14L505.15,34C504.93,33.36,504.68,32.77,504.44,32.18Z"/><path class="cls-6" d="M654.94,13.94c.55,1,0,1.6-.19,2.23Q639.9,58,625.07,99.8c-1.06,3-3.13,4.87-5.64,6.78-.43-1.11.12-1.87.39-2.63q7.11-20.13,14.25-40.24c5.11-14.39,10.27-28.77,15.3-43.18C650.42,17.53,652.52,15.71,654.94,13.94Z"/><path class="cls-6" d="M557.87,127.73c-2.27-1.77-4.38-3.18-5.32-5.85-3.94-11.16-7.95-22.3-11.93-33.45q-9-25.31-18-50.63a5.09,5.09,0,0,1-.66-2.51,10.6,10.6,0,0,1,5.58,5.7l7.65,21.48q11,30.86,22,61.72A6.83,6.83,0,0,1,557.87,127.73Z"/><path class="cls-6" d="M631.43,35c.48,1.09-.06,1.79-.31,2.5Q622,63.27,612.75,89c-3.85,10.77-7.74,21.52-11.51,32.32-1,2.82-3,4.57-5.36,6.4-.51-1.21.08-2.06.37-2.89q4-11.31,8-22.6c7.19-20.19,14.42-40.36,21.54-60.57C626.88,38.68,629,36.89,631.43,35Z"/><path class="cls-6" d="M509.76,24.48l.49-.5c3.56,2.59,5.49,6.14,6.94,10.3,9.2,26.34,18.6,52.62,27.92,78.92a14.48,14.48,0,0,1,1.13,4.24c-2.54-2.12-4.7-3.8-5.69-6.65-2.69-7.7-5.45-15.38-8.19-23.06L510.37,26C510.18,25.52,510,25,509.76,24.48Z"/><path class="cls-6" d="M607.57,117.3a7.49,7.49,0,0,1,.75-3.62q14.56-41.16,29.13-82.33a12.38,12.38,0,0,1,5.66-6.75c.5.92,0,1.56-.2,2.21l-27.6,77.52c-.81,2.26-1.65,4.51-2.42,6.78C612,113.77,609.82,115.24,607.57,117.3Z"/><path class="cls-3" d="M548,393.06c-1.12,0-2.24.08-3.35,0-1.48-.13-2-.63-2.11-2.11a65.1,65.1,0,0,1,0-6.7c.07-1.46.64-2,2.14-2.06q3.48-.17,7,0c1.6.07,2.18.64,2.25,2.23.1,2.15.11,4.32,0,6.47-.08,1.57-.67,2.08-2.29,2.2-1.19.09-2.4,0-3.6,0Z"/><path class="cls-3" d="M472.74,393.05c-1.2,0-2.4,0-3.6,0a1.9,1.9,0,0,1-2-2c-.06-2.32,0-4.64,0-6.95a1.82,1.82,0,0,1,1.78-1.92,51.54,51.54,0,0,1,7.66,0,1.92,1.92,0,0,1,1.9,2.08c.05,2.23.1,4.48,0,6.71-.07,1.45-.64,1.95-2.14,2.07-1.19.11-2.39,0-3.59,0Z"/><path class="cls-3" d="M491.92,393.05c-1.2,0-2.4.05-3.6,0a1.9,1.9,0,0,1-2-2q-.09-3.46,0-6.95a1.82,1.82,0,0,1,1.79-1.91,51.54,51.54,0,0,1,7.66,0,1.91,1.91,0,0,1,1.89,2.08c0,2.24.1,4.48,0,6.71-.08,1.46-.65,1.95-2.15,2.08-1.19.1-2.39,0-3.59,0Z"/><path class="cls-3" d="M510.71,382.15c1.2,0,2.4-.09,3.59,0,1.47.13,2,.64,2.09,2.13.11,2.15.11,4.32,0,6.47-.07,1.62-.63,2.2-2.21,2.27-2.31.11-4.64.11-7,0-1.58-.07-2.14-.66-2.22-2.26q-.15-3.12,0-6.24c.07-1.76.61-2.27,2.33-2.41,1.11-.08,2.24,0,3.36,0Z"/><path class="cls-3" d="M585.93,393.07c-1.12,0-2.24.08-3.35,0-1.51-.13-2.09-.62-2.17-2.06q-.17-3.35,0-6.71c.07-1.48.63-2,2.1-2.1,2.4-.11,4.8-.06,7.2,0a1.86,1.86,0,0,1,2,1.92q.1,3.48,0,7a1.88,1.88,0,0,1-2,2c-1.28.06-2.56,0-3.84,0Z"/><path class="cls-3" d="M567.29,393.08c-1.12,0-2.25.07-3.36,0-1.6-.13-2.18-.65-2.26-2.22a63.47,63.47,0,0,1,0-6.47c.08-1.58.66-2.15,2.26-2.21q3.48-.15,7,0c1.48.07,2,.62,2.13,2.09.11,2.23.11,4.47,0,6.7-.07,1.47-.63,2-2.13,2.09-1.19.1-2.39,0-3.59,0Z"/><path class="cls-3" d="M529.4,393.08c-1.12,0-2.25.07-3.36,0-1.62-.13-2.2-.63-2.28-2.21q-.15-3.23,0-6.47c.08-1.58.65-2.16,2.25-2.22,2.31-.1,4.64-.1,7,0,1.57.07,2.1.66,2.18,2.3.09,2.07.1,4.16,0,6.23-.08,1.73-.65,2.2-2.39,2.38a3.75,3.75,0,0,1-.48,0H529.4Z"/><path class="cls-7" d="M569.26,77.63c2.49,1.52,4.78,3.13,5.64,6.14a10.14,10.14,0,0,0,1.94,4.44c1.39-2,1.55-4.36,2.64-6.27s3-3.24,4.67-4.62c.68.47.33,1,.19,1.35C582.2,84.76,580,90.86,577.88,97c-.06.15-.1.3-.17.45-.2.42-.26,1-.79,1.1-.75.11-.86-.61-1-1.1q-2.67-7.44-5.28-14.89A16.71,16.71,0,0,1,569.26,77.63Z"/><path class="cls-7" d="M469.28,245a3,3,0,0,1-3,2.85,2.9,2.9,0,1,1,.12-5.79A2.92,2.92,0,0,1,469.28,245Z"/><path class="cls-7" d="M499.58,270.56a2.9,2.9,0,0,1-3,2.79,2.9,2.9,0,0,1,.22-5.79A2.89,2.89,0,0,1,499.58,270.56Z"/><path class="cls-7" d="M529.88,270.46a2.83,2.83,0,1,1-2.88-2.9A2.85,2.85,0,0,1,529.88,270.46Z"/><path class="cls-7" d="M436,196.81a2.84,2.84,0,0,1-2.86-2.91,2.89,2.89,0,0,1,3-2.74,2.93,2.93,0,0,1,2.74,2.82A2.79,2.79,0,0,1,436,196.81Z"/><path class="cls-7" d="M469.26,219.57a2.92,2.92,0,0,1-3,2.78,2.86,2.86,0,0,1-2.8-2.93,3,3,0,0,1,3-2.8A2.88,2.88,0,0,1,469.26,219.57Z"/><path class="cls-7" d="M435.9,216.63a3,3,0,0,1,3,2.75,2.87,2.87,0,0,1-2.76,3,2.92,2.92,0,0,1-3-2.74A2.88,2.88,0,0,1,435.9,216.63Z"/><path class="cls-7" d="M469.27,270.4a2.9,2.9,0,0,1-5.79.12,2.9,2.9,0,1,1,5.79-.12Z"/><path class="cls-7" d="M438.94,270.48a2.9,2.9,0,1,1-2.89-2.92A3.06,3.06,0,0,1,438.94,270.48Z"/><path class="cls-7" d="M436,242.09a2.9,2.9,0,1,1-2.85,2.94A3,3,0,0,1,436,242.09Z"/><path class="cls-7" d="M499.58,245a2.9,2.9,0,0,1-2.95,2.83,2.76,2.76,0,0,1-2.71-2.79,2.85,2.85,0,0,1,2.8-3A2.89,2.89,0,0,1,499.58,245Z"/><path class="cls-7" d="M499.57,219.44a2.9,2.9,0,0,1-2.85,2.93,2.74,2.74,0,0,1-2.79-2.68,2.84,2.84,0,0,1,2.68-3.07A2.92,2.92,0,0,1,499.57,219.44Z"/><path class="cls-7" d="M466.29,196.81a2.77,2.77,0,0,1-2.77-2.95,2.94,2.94,0,0,1,2.84-2.7,2.88,2.88,0,0,1,2.9,2.86A2.85,2.85,0,0,1,466.29,196.81Z"/><path class="cls-7" d="M527.16,196.79a2.73,2.73,0,0,1-2.94-2.74,2.85,2.85,0,0,1,2.85-2.88,2.78,2.78,0,0,1,2.8,2.65A2.73,2.73,0,0,1,527.16,196.79Z"/><path class="cls-7" d="M493.94,193.76a2.78,2.78,0,0,1,3.09-2.58,2.9,2.9,0,0,1,2.52,3.18,2.82,2.82,0,0,1-3,2.44A2.7,2.7,0,0,1,493.94,193.76Z"/><path class="cls-2" d="M524.6,243.27l-.41,1Z"/><path class="cls-2" d="M524.69,221.31l.42.47Z"/><path class="cls-3" d="M507.33,28.91l-.38-.56Z"/><path class="cls-1" d="M720.43,1.41l-.39.53Z"/><path class="cls-1" d="M730.53,525.11a2.81,2.81,0,0,1-1.93-1c1-3.15,2.07-6.31,3.27-10a5.24,5.24,0,0,0-3.21,3c-.84,2.15-1.62,4.31-2.43,6.47a3.63,3.63,0,0,1-2-1,3.88,3.88,0,0,0,.08-2c-.89-.11-1.29.73-1.93,1.08-4.83-2.24-7.9-6.23-10.15-10.79a26,26,0,0,1,5.2-30.5c8.74-8.42,21.78-10.74,33.7-2.89A26.46,26.46,0,0,1,757,515.66a19,19,0,0,1-7.23,6.12c-.6-.35-1-1-1.82-1.11-.54.67,0,1.35,0,2a3.63,3.63,0,0,1-2,1c-.77-2.08-1.54-4.17-2.33-6.25a5.57,5.57,0,0,0-3.13-3.23c.68,3.65,2.32,6.66,3.09,9.93a2.81,2.81,0,0,1-1.93,1c-1.44-4.05-2.87-8.09-4.33-12.13-.26-.71-.28-1.84-1.22-1.84s-1,1.13-1.22,1.84C733.4,517,732,521.06,730.53,525.11Z"/><path class="cls-13" d="M739.24,525.59l-1.94.47h0c-.29-.24-.18-.69-.47-.94-.49-.84-1-.84-1.46,0-.29.25-.18.7-.47.94h0l-1.91-.95c.73-2.65,1.78-5.17,2.79-7.85C737.11,518.64,738.38,521.8,739.24,525.59Z"/><path class="cls-6" d="M735.9,537.64c1.59,2.46,4.07,9.52,4.22,11.74-2.72-.63-2.58-3.37-3.84-5.09-1,.27-1,1.19-1.28,1.86a6.3,6.3,0,0,1-2,2.93.84.84,0,0,1-.88.21.63.63,0,0,1-.25-.83C733.19,545,734.17,541.38,735.9,537.64Z"/><path class="cls-10" d="M736.81,525.13c.16.31.32.63.47.94C737.13,525.76,737,525.44,736.81,525.13Z"/><path class="cls-10" d="M734.88,526.07l.47-.94Z"/><path class="cls-1" d="M473.31,1.45l.42.52Z"/></svg>