<svg id="Layer_1" data-name="Layer 1" xmlns="http://www.w3.org/2000/svg" viewBox="0 0 841.92 595.68"><defs><style>.cls-1{fill:#2d2d2d;}.cls-2{fill:#464646;}.cls-3{fill:#383838;}.cls-4{fill:#4d4d4d;}.cls-5{fill:#474747;}.cls-6{fill:#404040;}.cls-7{fill:#484848;}.cls-8{fill:#343434;}.cls-9{fill:#242424;}.cls-10{fill:#333;}.cls-11{fill:#494949;}.cls-12{fill:#252525;}.cls-13{fill:#2b2b2b;}</style></defs><path class="cls-1" d="M267.85,595.67H0V237.12c.93-2.4.59-5,1.25-7.47a119.29,119.29,0,0,1,8.52-21.84A131.51,131.51,0,0,1,25.61,183a138.33,138.33,0,0,1,39.56-33.63,135.46,135.46,0,0,1,53.53-17c4.58-.47,9.22-1.06,13.86-.48a116.64,116.64,0,0,1,28.07,2.81,137.19,137.19,0,0,1,93.48,71.79,132.74,132.74,0,0,1,14.09,48.06c.31,3.26.2,6.56.82,9.8.24,4.88-.79,9.7-.83,14.52-.21,26.38-.1,52.77-.1,79.16,0,2.24.1,4.47,0,6.71,0,1.25-.16,2.58.83,3.64a1.38,1.38,0,0,1,.29,1.12c-.95,8.1-.58,16.24-.6,24.35-.14,45.25-.33,90.51,0,135.76.17,20.62.25,41.24.36,61.87C269.05,593,269.28,594.58,267.85,595.67Z"/><path class="cls-2" d="M841.9,236.64v167c-.94,1.26-2.32,1.2-3.67,1.2-11.14,0-22.27-.08-33.41.07-2.48-.07-5-.07-7.43-.07q-130,0-260.09-.06A128.21,128.21,0,0,1,484.08,393a136.24,136.24,0,0,1-43.93-31.56,140,140,0,0,1-31.71-55.55,170.63,170.63,0,0,1-5.32-26.54c-.49-3.56-.09-7.18-.2-10.78.94-12.19,2.37-24.31,6.09-36A136.85,136.85,0,0,1,518.9,137.16c1.48-.24,3,0,4.45-.12,1.29-.13,2.53.14,3.64-1,.76-.81,2.14-.35,3.24-.42a126.29,126.29,0,0,0,46.88-7.17,132,132,0,0,0,43.85-26,136.06,136.06,0,0,0,31-40.48,138.45,138.45,0,0,0,14-45.4c.53-4.12.95-8.24,1.08-12.4.05-1.43-.4-3.74,2.36-3.67a3.6,3.6,0,0,1,.9,3c0,17,.22,33.89-.08,50.84-.43,25,.13,50,.28,75,.06,10.88,3.73,21.19,9.09,30.77,8.1,14.46,19.58,25.8,32.84,35.43,18.32,13.31,38.72,22.32,60.27,28.92a268.57,268.57,0,0,0,55.76,10.43c3.5.3,7,.64,10.52.65A3.26,3.26,0,0,1,841.9,236.64Z"/><path class="cls-3" d="M403.66,268.35a9.26,9.26,0,0,1,.48,3.54c-.22,7.59,1.22,15,2.72,22.35a137.12,137.12,0,0,0,21.89,51,135,135,0,0,0,34.42,34.42,132.76,132.76,0,0,0,44.34,20.06,141.93,141.93,0,0,0,23.21,3.55c5.36.41,10.71.38,16.07.39l252.46,0c1.75,0,3.53-.2,5.22.46,1.09.45,1.16,1.39,1.17,2.38,0,13.33.46,26.67-.13,40-.57,13-5.21,24.74-12.83,35.29-1,1.42-2.06,2.84-3.11,4.24a1.87,1.87,0,0,1-2.72,0,2.26,2.26,0,0,0-3,0,2.43,2.43,0,0,0-.49,3c.35.79.88,1.52.18,2.37-3,3.9-7,6.49-11.08,9a70.79,70.79,0,0,1-30.24,10c-1.11.12-2.21.35-3.33.46-4.79.22-9.54-.82-14.26-.83q-85.33-.24-170.68-.09c-3.65,0-7.21,1.2-10.9,1.09a2.9,2.9,0,0,0-1.91.91c-1.5,1.45-1.33,3.35-1.33,5.17q0,17.87,0,35.71V591a8,8,0,0,1-.58,4,5.09,5.09,0,0,1-.62.69H267.85c0-17.59.28-35.18-.07-52.77-.87-44.29-.12-88.59-.39-132.88-.05-6.79,0-13.59,0-20.38q0-61.39,0-122.79c0-1.12,0-2.24,0-3.36,1.06-.63,1.46,0,1.58.91a21,21,0,0,1,.07,2.63q0,44.37,0,88.76c0,3-.59,5.94-.67,7.48.19-6.12,2.56-14.38,7-23.53,9.26-19.14,23.31-34.07,40.69-46a152.23,152.23,0,0,1,76.86-26.25c2.87-.15,5.74-.48,8.61-.35C402.36,267.19,403.62,266.78,403.66,268.35Z"/><path class="cls-4" d="M538.55,595.19V509.76a5.63,5.63,0,0,1,2.82-.23l195.45,0a6,6,0,0,0,2.83-.21c15.93-1,30-6.51,42-17.21l1.26-1.1a1.4,1.4,0,0,1,1.43-1,3,3,0,0,0,3.28-3,1.52,1.52,0,0,1,.93-1.24,13.62,13.62,0,0,1,2.18-3.42,66.84,66.84,0,0,0,13.76-41.05q0-18.58,0-37.15a13.36,13.36,0,0,1,4.49-.48H841.9V595.19a4.12,4.12,0,0,1-2.35.23q-149.32,0-298.65,0A4.12,4.12,0,0,1,538.55,595.19Z"/><path class="cls-3" d="M669.14.48a11.12,11.12,0,0,0-.95,4.43,138.09,138.09,0,0,1-11.81,50.63,138.91,138.91,0,0,1-23.6,36.79,133.28,133.28,0,0,1-43.07,32.31,128.67,128.67,0,0,1-42.57,11.76c-5.6.55-11.19.29-16.78.42a57.34,57.34,0,0,1-13.16-.06,129.37,129.37,0,0,1-66.71-31C427.2,85.39,412.2,59.94,405.27,29.77a84.28,84.28,0,0,1-1.88-14.14c-.1-1.61-.22-3.36-1.56-4.63.34-3.22.07-6.45.18-9.68A10.58,10.58,0,0,1,403.2,0H669.59a.42.42,0,0,1,.2.36c0,.15,0,.22-.07.22A.41.41,0,0,1,669.14.48Z"/><path class="cls-1" d="M669.14.48h.44A2.1,2.1,0,0,1,671,.25c16.76,0,33.52,0,50.29,0,1.53,1.71-.31,1.87-1.13,2.09A60.34,60.34,0,0,0,695,15.75a80.69,80.69,0,0,0-9,9.07A62.72,62.72,0,0,0,672.94,52.7c-1,5.26-2,10.61-1.5,16,.77,7.74,1.89,15.45,5.18,22.65a71.21,71.21,0,0,0,11.62,18.35,65.86,65.86,0,0,0,22.24,16.51,67.3,67.3,0,0,0,20.06,5.36c11.8,1.36,23-.7,33.74-5.19a61.06,61.06,0,0,0,17.37-11.45,65.73,65.73,0,0,0,18.22-27.49A49.25,49.25,0,0,0,803,71.19c0-2.6,1.1-5.19.5-7.94-.81-3.75-.48-7.68-1.56-11.41a6.18,6.18,0,0,1-.28-1.33A58.21,58.21,0,0,0,795.24,34a70.11,70.11,0,0,0-23-24.08A67,67,0,0,0,754.88,2.3c-1.82-.56-1.89-.61-1.1-2,12.51-.05,25,0,37.54,0A4.93,4.93,0,0,0,793.9,0h48V236.64a241.66,241.66,0,0,1-40.53-4,244.51,244.51,0,0,1-54.8-16.42c-16.39-7.12-31.7-16-45.15-27.84-10.23-9-19-19.2-25-31.59a77.83,77.83,0,0,1-6.29-19.33,64.36,64.36,0,0,1-1-12.16q.06-59.86,0-119.73C669.11,3.84,669.13,2.16,669.14.48Z"/><path class="cls-5" d="M132.51,132.92a146.84,146.84,0,0,0-29.26,3.24A135.71,135.71,0,0,0,1.4,233.57,9.08,9.08,0,0,1,0,237.12V.49A5.57,5.57,0,0,1,2.85.26q88.41,0,176.8,0c.65,0,1.42,0,1.43.84s-.92,1-1.57,1.17a63.69,63.69,0,0,0-21.44,11.88c-12.37,10.38-20.25,23.45-23.17,39.4-.58,3.15-.17,3.69,3,4.34,1.9.39,2.08.75,1.19,2.36-3.2.87-6.47.35-9.71.48-1,0-2.07,0-3.1.08-2.37.24-3.31,1.1-3.51,3.41a38,38,0,0,0,0,6.91c.2,2.3,1.16,3.2,3.5,3.44,1.59.16,3.18,0,4.77.11.82,0,1.82-.19,2.17,1a13.69,13.69,0,0,1,.5,4q0,24.66,0,49.31C133.7,130.39,133.88,131.89,132.51,132.92Z"/><path class="cls-6" d="M180.49.49H0C.13.34-.22,0,.26,0,.9,0,1.54,0,2.18,0h401V1.45a2.68,2.68,0,0,1-1.58.42c-31.57-.4-63.14-.08-94.72-.18-13,0-26.05.06-39.08-.05-28.07.1-56.13,0-84.2,0C182.47,1.66,181.13,2,180.49.49Z"/><path class="cls-7" d="M538.55,595.19H841.9c-.11.15.24.51-.24.49-.64,0-1.28,0-1.92,0H538.55Z"/><path class="cls-8" d="M721.42.49H669.58c0-.16,0-.32,0-.47H793.9a11.07,11.07,0,0,1-4.24.47H753.58c-.6,1.37-1.8,1-2.88,1q-13.22.47-26.43,0C723.22,1.46,722,1.86,721.42.49Z"/><path class="cls-4" d="M180.49.49h87.35a3.05,3.05,0,0,1,1.21,2.68A132.11,132.11,0,0,0,274.53,36a130.23,130.23,0,0,0,16.15,34.91,133.07,133.07,0,0,0,66.19,52.72,126,126,0,0,0,35.74,7.71c1.43.1,2.84.42,4.29.43,3.47,0,4.47-.9,4.6-4.32,0-1.12,0-2.24,0-3.36V14.42c0-1,0-2.08.05-3.11.06-.69,0-1.6.89-1.75s.82,1,1.19,1.48a142.4,142.4,0,0,0,11.2,44A139.17,139.17,0,0,0,438,91.52a134.52,134.52,0,0,0,35.56,28.87,129.42,129.42,0,0,0,49,15.78c2.62.31,5.26.44,7.88.65a22.89,22.89,0,0,1-5.19.86,136.38,136.38,0,0,0-41.47,11.38,135,135,0,0,0-33.31,21.58,125.92,125.92,0,0,0-15.66,16.48,142.7,142.7,0,0,0-12.56,18.12,138,138,0,0,0-9.63,20.88,136.42,136.42,0,0,0-7.8,36.24c-.09,1-.09,2.08-.11,3.12a3.78,3.78,0,0,1-1,2.87,152.48,152.48,0,0,0-41.5,5.44,147.21,147.21,0,0,0-32.4,13.11,144.39,144.39,0,0,0-22.52,15c-12.65,10.48-23.12,22.75-30.34,37.62a90.37,90.37,0,0,0-8.16,26,6.29,6.29,0,0,1-.86,2.59V365.2q0-47.15,0-94.31c0-2.47.24-5-.46-7.4a122.89,122.89,0,0,0-5-32.38,135.41,135.41,0,0,0-112.68-97,170.81,170.81,0,0,0-17.21-1.24v-57c-.08-1.2.89-1.08,1.62-1.26,2.57-.67,3.23-1.42,3.36-4.14s0-5.41,0-8.11a3.13,3.13,0,0,1,1.18-2.81,8.71,8.71,0,0,0-3-.56c-2.28-.19-2.77-.78-2.47-3.08A65.87,65.87,0,0,1,137,41.11a66.77,66.77,0,0,1,15.13-23.35A66.48,66.48,0,0,1,178.25,1.33C179,1.08,179.75.77,180.49.49Z"/><path class="cls-9" d="M132.37,354a4,4,0,0,1,3.68,4,3.79,3.79,0,1,1-7.58-.22A3.94,3.94,0,0,1,132.37,354Z"/><path class="cls-9" d="M132.37,453.78a4,4,0,0,1,3.68,4,3.79,3.79,0,1,1-7.58-.22A4,4,0,0,1,132.37,453.78Z"/><path class="cls-9" d="M211.61,461.45a4.08,4.08,0,0,1-3.94-3.76,4,4,0,0,1,3.74-3.91,4.11,4.11,0,0,1,3.93,3.77A3.93,3.93,0,0,1,211.61,461.45Z"/><path class="cls-9" d="M215.34,357.94a3.93,3.93,0,0,1-4,3.67,4.07,4.07,0,0,1-3.7-4,3.92,3.92,0,0,1,4-3.68A4.09,4.09,0,0,1,215.34,357.94Z"/><path class="cls-9" d="M56.78,457.54A4,4,0,0,1,53,461.46a4,4,0,0,1-3.87-3.77,4.1,4.1,0,0,1,4-3.9A3.83,3.83,0,0,1,56.78,457.54Z"/><path class="cls-9" d="M56.78,357.67a4,4,0,0,1-3.71,3.95,3.94,3.94,0,0,1-3.9-3.74,4.08,4.08,0,0,1,4-3.93A3.84,3.84,0,0,1,56.78,357.67Z"/><path class="cls-9" d="M92.8,354a3.59,3.59,0,0,1,3.59,3.72,3.74,3.74,0,1,1-7.46,0A3.74,3.74,0,0,1,92.8,354Z"/><path class="cls-9" d="M92.69,453.83a3.58,3.58,0,0,1,3.7,3.6,3.74,3.74,0,1,1-7.47.23A3.75,3.75,0,0,1,92.69,453.83Z"/><path class="cls-9" d="M211.62,428.05a3.92,3.92,0,0,1-3.94-3.69,4,4,0,0,1,3.89-3.78,3.74,3.74,0,0,1,3.73,3.85A3.59,3.59,0,0,1,211.62,428.05Z"/><path class="cls-9" d="M215.35,291a4.11,4.11,0,0,1-3.73,4,3.91,3.91,0,0,1-3.94-3.7,3.67,3.67,0,0,1,3.84-3.72A3.59,3.59,0,0,1,215.35,291Z"/><path class="cls-9" d="M53.06,328.22a3.61,3.61,0,0,1-3.84-3.45,3.87,3.87,0,0,1,3.61-4,3.74,3.74,0,1,1,.23,7.46Z"/><path class="cls-9" d="M251,361.67a4,4,0,0,1-3.59-3.83,4.09,4.09,0,0,1,4.06-3.89,3.65,3.65,0,0,1,3.34,3.95A3.73,3.73,0,0,1,251,361.67Z"/><path class="cls-9" d="M211.6,320.75a3.73,3.73,0,0,1,3.7,3.88,3.59,3.59,0,0,1-3.71,3.58,3.92,3.92,0,0,1-3.91-3.72A4,4,0,0,1,211.6,320.75Z"/><path class="cls-9" d="M254.8,457.72a3.75,3.75,0,0,1-3.8,3.79,4,4,0,0,1-3.61-3.82,4.09,4.09,0,0,1,4.05-3.9A3.66,3.66,0,0,1,254.8,457.72Z"/><path class="cls-9" d="M211.43,494.7a4,4,0,0,1-3.76-3.91,3.71,3.71,0,0,1,4-3.52,3.55,3.55,0,0,1,3.63,3.63A4.12,4.12,0,0,1,211.43,494.7Z"/><path class="cls-9" d="M211.58,387.43a3.58,3.58,0,0,1,3.77,3.5,4.11,4.11,0,0,1-3.79,3.92,3.92,3.92,0,0,1-3.88-3.77A3.67,3.67,0,0,1,211.58,387.43Z"/><path class="cls-9" d="M56.89,424.3A4.08,4.08,0,0,1,53,428.05a3.6,3.6,0,0,1-3.75-3.54,3.88,3.88,0,0,1,3.72-3.91A4,4,0,0,1,56.89,424.3Z"/><path class="cls-9" d="M56.89,524.27a4.1,4.1,0,0,1-4.06,3.62,3.58,3.58,0,0,1-3.62-3.67,3.9,3.9,0,0,1,3.85-3.8A4.07,4.07,0,0,1,56.89,524.27Z"/><path class="cls-9" d="M211.44,520.42a3.74,3.74,0,0,1,3.86,3.73,3.59,3.59,0,0,1-3.55,3.74,3.74,3.74,0,1,1-.31-7.47Z"/><path class="cls-9" d="M13.46,420.61a3.65,3.65,0,0,1,3.71,3.81,3.72,3.72,0,0,1-3.91,3.64,3.59,3.59,0,0,1-3.56-3.7A3.64,3.64,0,0,1,13.46,420.61Z"/><path class="cls-9" d="M56.78,490.88a3.83,3.83,0,0,1-3.54,3.81,4.09,4.09,0,0,1-4.07-3.86,3.57,3.57,0,0,1,3.69-3.56A3.61,3.61,0,0,1,56.78,490.88Z"/><path class="cls-9" d="M13.34,527.89a3.56,3.56,0,0,1-3.64-3.6,3.64,3.64,0,0,1,3.68-3.84,3.64,3.64,0,0,1,3.79,3.72A3.7,3.7,0,0,1,13.34,527.89Z"/><path class="cls-9" d="M96.36,291.41a3.64,3.64,0,0,1-3.86,3.65,3.71,3.71,0,0,1-3.58-4,3.58,3.58,0,0,1,3.75-3.5A3.63,3.63,0,0,1,96.36,291.41Z"/><path class="cls-9" d="M251.12,328.21a3.72,3.72,0,1,1,3.69-3.56A3.57,3.57,0,0,1,251.12,328.21Z"/><path class="cls-9" d="M251,520.45a3.63,3.63,0,0,1,3.8,3.71,3.58,3.58,0,0,1-3.51,3.73,3.71,3.71,0,0,1-4-3.59A3.65,3.65,0,0,1,251,520.45Z"/><path class="cls-9" d="M254.81,424.32a3.57,3.57,0,0,1-3.51,3.73,3.7,3.7,0,0,1-4-3.82,3.73,3.73,0,0,1,7.46.09Z"/><path class="cls-9" d="M53,387.43a3.61,3.61,0,0,1,3.76,3.77,3.84,3.84,0,0,1-3.7,3.66,4.1,4.1,0,0,1-3.91-4A3.58,3.58,0,0,1,53,387.43Z"/><path class="cls-9" d="M13.44,461.51a3.74,3.74,0,0,1-3.72-3.85,3.61,3.61,0,0,1,3.69-3.83,3.84,3.84,0,0,1,0,7.68Z"/><path class="cls-9" d="M17.13,357.85a4,4,0,0,1-3.84,3.82,3.73,3.73,0,0,1-3.57-3.76A3.63,3.63,0,0,1,13.33,354,4,4,0,0,1,17.13,357.85Z"/><path class="cls-9" d="M92.73,494.73a3.67,3.67,0,0,1-3.8-3.73,3.56,3.56,0,0,1,3.75-3.73,3.73,3.73,0,0,1,0,7.46Z"/><path class="cls-9" d="M96.36,391.1a3.63,3.63,0,0,1-3.71,3.8,3.7,3.7,0,0,1-3.73-3.81,3.56,3.56,0,0,1,3.6-3.65A3.63,3.63,0,0,1,96.36,391.1Z"/><path class="cls-9" d="M136.09,424.39a3.71,3.71,0,0,1-3.88,3.66,4.06,4.06,0,0,1-3.78-3.87,4.11,4.11,0,0,1,3.81-3.59A4,4,0,0,1,136.09,424.39Z"/><path class="cls-9" d="M132.37,387.45a3.51,3.51,0,0,1,3.68,3.55,3.8,3.8,0,1,1-7.58-.22A3.54,3.54,0,0,1,132.37,387.45Z"/><path class="cls-9" d="M136.09,324.54a3.71,3.71,0,0,1-3.87,3.67,4,4,0,0,1-3.79-3.85,4.1,4.1,0,0,1,3.8-3.61A4,4,0,0,1,136.09,324.54Z"/><path class="cls-9" d="M175.59,291.25a3.67,3.67,0,0,1-3.77,3.8,3.78,3.78,0,0,1-3.67-3.7,3.63,3.63,0,0,1,3.8-3.75A3.56,3.56,0,0,1,175.59,291.25Z"/><path class="cls-9" d="M132.32,295a4,4,0,0,1-3.85-3.79,3.48,3.48,0,0,1,3.6-3.61,3.55,3.55,0,0,1,4,3.49A4,4,0,0,1,132.32,295Z"/><path class="cls-9" d="M136.05,490.9a3.8,3.8,0,1,1-7.59-.11,3.56,3.56,0,0,1,4-3.5A3.5,3.5,0,0,1,136.05,490.9Z"/><path class="cls-9" d="M171.85,494.73a3.78,3.78,0,0,1-3.7-3.91,3.63,3.63,0,0,1,3.77-3.55,3.57,3.57,0,0,1,3.67,3.62A3.69,3.69,0,0,1,171.85,494.73Z"/><path class="cls-9" d="M175.59,391a3.68,3.68,0,0,1-3.7,3.87,3.78,3.78,0,0,1-3.74-3.63,3.63,3.63,0,0,1,3.73-3.82A3.57,3.57,0,0,1,175.59,391Z"/><path class="cls-9" d="M132.22,520.43a4,4,0,0,1,3.87,3.78,3.71,3.71,0,0,1-3.62,3.68,3.74,3.74,0,1,1-.25-7.46Z"/><path class="cls-9" d="M175.59,457.48a3.72,3.72,0,1,1-7.43.2,4,4,0,0,1,3.77-3.84A3.72,3.72,0,0,1,175.59,457.48Z"/><path class="cls-9" d="M175.56,424.38a3.59,3.59,0,0,1-3.61,3.67,3.68,3.68,0,0,1-3.8-3.77,3.71,3.71,0,1,1,7.41.1Z"/><path class="cls-9" d="M171.86,520.45a3.72,3.72,0,0,1,0,7.44,3.69,3.69,0,0,1-3.73-3.85A3.64,3.64,0,0,1,171.86,520.45Z"/><path class="cls-9" d="M175.56,324.43a3.61,3.61,0,0,1-3.5,3.79,3.7,3.7,0,0,1-3.91-3.66,3.71,3.71,0,1,1,7.41-.13Z"/><path class="cls-9" d="M175.59,357.74a3.72,3.72,0,1,1-7.43,0,4,4,0,0,1,3.63-3.74A3.73,3.73,0,0,1,175.59,357.74Z"/><path class="cls-9" d="M96.36,324.42a3.71,3.71,0,1,1-3.88-3.64A3.63,3.63,0,0,1,96.36,324.42Z"/><path class="cls-9" d="M96.36,424.36a3.71,3.71,0,1,1-3.78-3.75A3.62,3.62,0,0,1,96.36,424.36Z"/><path class="cls-9" d="M13.47,487.27a3.63,3.63,0,0,1,3.69,3.59,3.92,3.92,0,0,1-3.81,3.83,3.62,3.62,0,0,1-3.62-3.89A3.58,3.58,0,0,1,13.47,487.27Z"/><path class="cls-9" d="M92.55,527.86a3.71,3.71,0,1,1,3.81-3.48A3.64,3.64,0,0,1,92.55,527.86Z"/><path class="cls-9" d="M17.16,391.09a3.92,3.92,0,0,1-3.88,3.77,3.61,3.61,0,0,1-3.55-3.73,3.57,3.57,0,0,1,3.8-3.69A3.62,3.62,0,0,1,17.16,391.09Z"/><path class="cls-9" d="M251.07,387.44a3.57,3.57,0,0,1,3.72,3.53,3.62,3.62,0,0,1-3.63,3.88,4.09,4.09,0,0,1-3.8-3.86A3.61,3.61,0,0,1,251.07,387.44Z"/><path class="cls-9" d="M254.79,291.19a3.63,3.63,0,0,1-3.44,3.83,4.13,4.13,0,0,1-4-3.69,3.62,3.62,0,0,1,3.77-3.73A3.57,3.57,0,0,1,254.79,291.19Z"/><path class="cls-9" d="M254.79,490.94a3.63,3.63,0,0,1-3.52,3.76,4.13,4.13,0,0,1-3.91-3.76,3.62,3.62,0,0,1,3.84-3.67A3.59,3.59,0,0,1,254.79,490.94Z"/><path class="cls-4" d="M594.27,292.36c0-1.6-.07-3.2,0-4.79s.64-2.33,2.37-2.38q4.79-.13,9.59,0c1.71.05,2.27.65,2.32,2.41q.12,4.92,0,9.83c-.05,1.88-.62,2.45-2.49,2.5q-4.67.13-9.35,0c-1.84-.05-2.36-.64-2.45-2.54-.08-1.68,0-3.36,0-5Z"/><path class="cls-4" d="M608.6,195.16c0,1.59.06,3.2,0,4.79-.1,1.91-.61,2.5-2.45,2.55q-4.67.13-9.35,0c-1.87,0-2.44-.63-2.49-2.5-.08-3.28-.09-6.56,0-9.83.05-1.84.65-2.39,2.56-2.44q4.54-.12,9.11,0c2,.06,2.53.63,2.63,2.63.07,1.6,0,3.2,0,4.8Z"/><path class="cls-4" d="M608.59,219.78c0,1.59.07,3.2,0,4.79-.1,1.76-.62,2.35-2.34,2.4q-4.79.14-9.59,0c-1.72-.05-2.3-.64-2.34-2.39q-.13-5,0-10.07c.05-1.61.63-2.22,2.21-2.26q4.9-.15,9.83,0c1.58,0,2.12.66,2.22,2.26.1,1.75,0,3.52,0,5.28Z"/><path class="cls-4" d="M594.27,341.54c0-1.68-.07-3.36,0-5s.65-2.32,2.38-2.36q4.8-.13,9.59,0c1.7.05,2.26.66,2.31,2.43q.12,4.91,0,9.83c-.05,1.87-.62,2.43-2.51,2.49q-4.66.14-9.35,0c-1.83-.05-2.34-.64-2.43-2.56-.08-1.59,0-3.19,0-4.79Z"/><path class="cls-4" d="M594.26,317c0-1.6-.06-3.2,0-4.79.1-1.9.61-2.48,2.46-2.54q4.68-.14,9.35,0c1.87,0,2.43.63,2.48,2.51q.13,4.8,0,9.6c0,2-.6,2.61-2.58,2.66q-4.56.12-9.11,0c-2-.05-2.52-.63-2.62-2.64-.07-1.6,0-3.2,0-4.8Z"/><path class="cls-4" d="M608.59,244.28c0,1.6.07,3.2,0,4.79-.1,1.74-.64,2.33-2.36,2.38q-4.8.13-9.59,0c-1.64,0-2.25-.61-2.3-2.17q-.15-5.16,0-10.31c0-1.6.64-2.2,2.22-2.25q4.92-.14,9.83,0c1.57,0,2.11.65,2.2,2.27s0,3.52,0,5.28Z"/><path class="cls-4" d="M608.6,268.72c0,1.52.06,3,0,4.56-.1,2-.6,2.61-2.59,2.66q-4.54.13-9.11,0c-2-.05-2.56-.63-2.61-2.64-.08-3.19-.08-6.39,0-9.58.06-2,.64-2.52,2.69-2.57q4.44-.12,8.87,0c2.15,0,2.61.6,2.77,2.77,0,.16,0,.32,0,.48v4.31Z"/><path class="cls-10" d="M398.87,447.12c0,3.92,0,7.83,0,11.75,0,2.85-.52,3.29-3.4,3.36-4.42.11-4.73-.19-4.74-4.68V436.2c0-.64,0-1.28,0-1.92.14-2.14.62-2.61,2.79-2.74q1.2-.06,2.4,0c2.3.11,2.83.6,2.91,2.87s0,4.31,0,6.47v6.24Z"/><path class="cls-10" d="M349,446.88c0-4,0-8,0-12,0-2.85.52-3.3,3.4-3.37,4.43-.1,4.74.2,4.74,4.68q0,10.68,0,21.35c0,.64,0,1.28,0,1.92-.14,2.14-.62,2.62-2.79,2.74q-1.2.06-2.4,0c-2.3-.1-2.84-.59-2.91-2.86s0-4.48,0-6.71v-5.76Z"/><path class="cls-10" d="M463.68,446.89c0-4,0-8,0-12,0-2.86.52-3.3,3.39-3.38,4.43-.11,4.74.19,4.74,4.68q0,10.67,0,21.34c0,.64,0,1.28,0,1.92-.14,2.15-.62,2.63-2.78,2.75q-1.2.06-2.4,0c-2.31-.1-2.85-.59-2.92-2.85s0-4.48,0-6.72v-5.75Z"/><path class="cls-10" d="M484.79,446.87c0,4,0,8,0,12,0,2.85-.53,3.3-3.4,3.37-4.42.11-4.74-.19-4.74-4.67q0-10.68,0-21.35c0-.64,0-1.28,0-1.92.14-2.14.62-2.62,2.79-2.74a21.35,21.35,0,0,1,2.4,0c2.3.11,2.84.59,2.91,2.86s0,4.47,0,6.71v5.76Z"/><path class="cls-10" d="M443,446.86c0,4,0,8,0,12,0,2.86-.52,3.31-3.38,3.38-4.44.11-4.75-.19-4.76-4.66V436.22c0-.64,0-1.28,0-1.92.13-2.15.61-2.63,2.77-2.76.72,0,1.44,0,2.16,0,2.6.08,3.11.55,3.18,3.1.05,1.91,0,3.83,0,5.75v6.48Z"/><path class="cls-10" d="M361.93,446.63c0-3.91,0-7.83,0-11.74,0-2.85.52-3.29,3.39-3.37,4.43-.1,4.75.2,4.75,4.67q0,10.77,0,21.56c0,.79,0,1.59-.08,2.39a2,2,0,0,1-2,2l-.48,0c-5.77.25-5.65-.45-5.63-5,0-3.51,0-7,0-10.54Z"/><path class="cls-10" d="M385.91,446.83c0,3.92,0,7.83,0,11.74a4.73,4.73,0,0,1-.43,2.57c-.89,1.48-6.3,1.6-7.26.16a4.82,4.82,0,0,1-.45-2.8q0-9.71,0-19.4c0-1.6,0-3.2,0-4.79.09-2.15.61-2.63,2.76-2.76a17.57,17.57,0,0,1,1.92,0c2.9.06,3.36.5,3.43,3.33,0,1.75,0,3.51,0,5.27v6.7Z"/><path class="cls-10" d="M328.32,447.11c0,3.91,0,7.82,0,11.74,0,2.86-.52,3.31-3.37,3.38-4.33.1-4.76-.31-4.77-4.72q0-10.78,0-21.56c0-.56,0-1.12,0-1.68.14-2.13.63-2.61,2.8-2.72a23.08,23.08,0,0,1,2.63,0c2,.13,2.57.63,2.65,2.62.09,2.31,0,4.63,0,6.95q0,3,0,6Z"/><path class="cls-10" d="M456,446.91c0,3.91,0,7.83,0,11.74,0,3.06-.49,3.51-3.43,3.58-4.24.1-4.71-.34-4.71-4.53,0-7.27,0-14.53,0-21.8,0-.64,0-1.28.05-1.91.16-1.76.64-2.27,2.35-2.41a20.18,20.18,0,0,1,3.11,0c2,.12,2.54.64,2.6,2.66.09,2.87,0,5.74.05,8.62v4.07Z"/><path class="cls-10" d="M419.53,446.65c0-3.91,0-7.83,0-11.74,0-2.87.51-3.31,3.37-3.39,4.44-.11,4.76.19,4.77,4.64q0,10.66,0,21.33c0,.87,0,1.75-.1,2.63a2,2,0,0,1-2,2,26.72,26.72,0,0,1-3.35.08c-2-.11-2.57-.63-2.64-2.62-.09-2.31,0-4.63-.05-6.94v-6Z"/><path class="cls-10" d="M341.28,446.88c0,4,0,8,0,12,0,2.84-.54,3.3-3.41,3.36-.4,0-.8,0-1.2,0-2.45-.1-3-.57-3-3q-.08-12.36,0-24.71c0-2.42.57-2.88,3-3,4.13-.18,4.6.26,4.61,4.31q0,5.52,0,11Z"/><path class="cls-10" d="M406.57,446.64c0-3.92,0-7.84,0-11.76,0-2.84.54-3.3,3.4-3.35h1.2c2.45.11,3,.57,3,3q.06,12.35,0,24.7c0,2.42-.58,2.89-3,3-4.13.18-4.61-.25-4.62-4.31,0-3.76,0-7.52,0-11.27Z"/><path class="cls-11" d="M739.65,509.29a12,12,0,0,1-4.5.46H538.55a11.67,11.67,0,0,1,4.73-.48H739.65Z"/><path class="cls-9" d="M669.1,491.39a3.71,3.71,0,1,1,3.72-3.58A3.66,3.66,0,0,1,669.1,491.39Z"/><path class="cls-9" d="M591.8,491.39a3.71,3.71,0,0,1-.15-7.42,3.89,3.89,0,0,1,3.84,3.82A3.59,3.59,0,0,1,591.8,491.39Z"/><path class="cls-9" d="M484.19,582.15a3.55,3.55,0,0,1-3.62-3.65,3.62,3.62,0,0,1,3.58-3.72,4,4,0,0,1,3.83,3.85A3.65,3.65,0,0,1,484.19,582.15Z"/><path class="cls-9" d="M711.54,455.28a3.56,3.56,0,0,1-3.74,3.53,3.34,3.34,0,0,1-3.59-3.58,3.56,3.56,0,0,1,3.52-3.75A3.83,3.83,0,0,1,711.54,455.28Z"/><path class="cls-9" d="M746.5,484a3.71,3.71,0,1,1-.2,7.41,3.7,3.7,0,0,1-3.53-3.79A3.8,3.8,0,0,1,746.5,484Z"/><path class="cls-9" d="M449.19,578.41a3.56,3.56,0,0,1-3.51,3.74,3.64,3.64,0,0,1-3.85-3.44,3.89,3.89,0,0,1,3.69-3.93A3.61,3.61,0,0,1,449.19,578.41Z"/><path class="cls-9" d="M788.52,485.78c.78,3.15-.46,5.41-3.1,5.64a7.38,7.38,0,0,1-2.54-.44,13.66,13.66,0,0,1-1.07-1.85,3.75,3.75,0,0,1,1.24-4.48,3.64,3.64,0,0,1,4.43.15A10.75,10.75,0,0,1,788.52,485.78Z"/><path class="cls-9" d="M333.08,578.43a3.56,3.56,0,1,1-7.11,0,3.56,3.56,0,1,1,7.11,0Z"/><path class="cls-9" d="M595.49,422.6a4,4,0,0,1-3.75,3.88,3.68,3.68,0,0,1-3.63-3.68,3.61,3.61,0,0,1,3.58-3.68A3.64,3.64,0,0,1,595.49,422.6Z"/><path class="cls-9" d="M549.39,422.64a3.66,3.66,0,0,1,7.32.13,3.62,3.62,0,0,1-3.57,3.72A3.86,3.86,0,0,1,549.39,422.64Z"/><path class="cls-9" d="M746.44,458.8a3.62,3.62,0,0,1-3.71-3.57,3.91,3.91,0,0,1,3.88-3.74,3.65,3.65,0,0,1,3.53,3.76A3.56,3.56,0,0,1,746.44,458.8Z"/><path class="cls-9" d="M294.55,578.69a3.69,3.69,0,0,1-7.38-.25,3.68,3.68,0,0,1,3.65-3.65A4,4,0,0,1,294.55,578.69Z"/><path class="cls-9" d="M785.09,426.48a3.72,3.72,0,0,1-3.58-4,3.56,3.56,0,0,1,3.86-3.38,3.61,3.61,0,0,1,3.5,3.77A3.9,3.9,0,0,1,785.09,426.48Z"/><path class="cls-9" d="M526.48,546.1a3.64,3.64,0,0,1-3.6,3.68,3.81,3.81,0,0,1-3.72-3.87,3.57,3.57,0,0,1,3.81-3.45A3.32,3.32,0,0,1,526.48,546.1Z"/><path class="cls-9" d="M410.59,546.23a3.8,3.8,0,0,1-3.8,3.55,3.65,3.65,0,0,1-3.51-4,3.34,3.34,0,0,1,3.84-3.3A3.51,3.51,0,0,1,410.59,546.23Z"/><path class="cls-9" d="M484.31,549.73A3.64,3.64,0,1,1,488,546,3.83,3.83,0,0,1,484.31,549.73Z"/><path class="cls-9" d="M750.13,422.75a3.73,3.73,0,0,1-3.59,3.73,3.89,3.89,0,0,1-3.78-3.83,3.61,3.61,0,0,1,3.75-3.53A3.55,3.55,0,0,1,750.13,422.75Z"/><path class="cls-9" d="M630.4,419.11a3.36,3.36,0,0,1,3.62,3.55,3.5,3.5,0,0,1-3.44,3.78,3.7,3.7,0,0,1-3.83-3.71A3.56,3.56,0,0,1,630.4,419.11Z"/><path class="cls-9" d="M371.88,578.54a3.69,3.69,0,0,1-7.38.05,4,4,0,0,1,3.83-3.8A3.68,3.68,0,0,1,371.88,578.54Z"/><path class="cls-9" d="M445.61,549.73a3.74,3.74,0,0,1-3.78-3.52,3.68,3.68,0,1,1,3.78,3.52Z"/><path class="cls-9" d="M785.06,451.49a3.85,3.85,0,0,1,3.81,3.53,3.61,3.61,0,0,1-3.73,3.78,3.55,3.55,0,0,1-3.64-3.6A3.66,3.66,0,0,1,785.06,451.49Z"/><path class="cls-9" d="M672.81,422.65a3.69,3.69,0,1,1-7.37,0,3.58,3.58,0,0,1,3.66-3.58A3.62,3.62,0,0,1,672.81,422.65Z"/><path class="cls-9" d="M410.59,578.61a3.65,3.65,0,0,1-3.73,3.54,3.54,3.54,0,0,1-3.58-3.65,3.62,3.62,0,0,1,3.79-3.72A3.86,3.86,0,0,1,410.59,578.61Z"/><path class="cls-9" d="M526.47,578.48a3.52,3.52,0,0,1-3.55,3.67,3.65,3.65,0,0,1-3.75-3.52,3.84,3.84,0,0,1,3.74-3.85A3.59,3.59,0,0,1,526.47,578.48Z"/><path class="cls-9" d="M556.71,487.86a3.6,3.6,0,0,1-3.72,3.52,3.69,3.69,0,1,1,.32-7.37A3.64,3.64,0,0,1,556.71,487.86Z"/><path class="cls-9" d="M553.07,451.49a3.63,3.63,0,0,1,3.64,3.62,3.66,3.66,0,0,1-7.32.26A3.8,3.8,0,0,1,553.07,451.49Z"/><path class="cls-9" d="M591.87,458.82a3.61,3.61,0,0,1-3.75-3.5,3.69,3.69,0,1,1,7.37-.11A3.58,3.58,0,0,1,591.87,458.82Z"/><path class="cls-9" d="M634,455.16a3.32,3.32,0,0,1-3.48,3.65,3.48,3.48,0,0,1-3.72-3.48,3.64,3.64,0,0,1,3.65-3.85A3.53,3.53,0,0,1,634,455.16Z"/><path class="cls-9" d="M669,458.82a3.57,3.57,0,0,1-3.58-3.64,3.68,3.68,0,1,1,7.36.17A3.61,3.61,0,0,1,669,458.82Z"/><path class="cls-9" d="M711.53,422.74a3.81,3.81,0,0,1-3.86,3.7,3.66,3.66,0,0,1,.22-7.32A3.63,3.63,0,0,1,711.53,422.74Z"/><path class="cls-9" d="M290.79,542.45a3.59,3.59,0,0,1,3.77,3.51,3.69,3.69,0,0,1-7.38.18A3.61,3.61,0,0,1,290.79,542.45Z"/><path class="cls-9" d="M368.07,542.45a3.61,3.61,0,0,1,3.8,3.49,3.69,3.69,0,0,1-7.37.22A3.57,3.57,0,0,1,368.07,542.45Z"/><path class="cls-9" d="M711.47,487.85a3.79,3.79,0,0,1-3.82,3.53,3.64,3.64,0,0,1-3.45-3.85A3.58,3.58,0,0,1,708,484,3.79,3.79,0,0,1,711.47,487.85Z"/><path class="cls-9" d="M634,487.63a3.58,3.58,0,0,1-3.55,3.73,3.68,3.68,0,0,1-.09-7.36A3.59,3.59,0,0,1,634,487.63Z"/><path class="cls-9" d="M333.06,545.94a3.55,3.55,0,1,1-7.07,0,3.54,3.54,0,0,1,7.07,0Z"/><path class="cls-12" d="M562,557.23a3.82,3.82,0,0,1-3.87,3.74,3.73,3.73,0,1,1,3.87-3.74Z"/><path class="cls-12" d="M828.93,553.52a3.72,3.72,0,1,1,0,7.44,3.75,3.75,0,0,1-3.75-3.59A3.71,3.71,0,0,1,828.93,553.52Z"/><path class="cls-12" d="M635.63,561a3.83,3.83,0,0,1-3.8-3.8,3.72,3.72,0,1,1,3.8,3.8Z"/><path class="cls-12" d="M755.32,557.21a3.84,3.84,0,0,1-3.83,3.77,3.73,3.73,0,1,1,3.83-3.77Z"/><path class="cls-12" d="M595.52,520.06a3.89,3.89,0,0,1-3.74,3.87,3.79,3.79,0,0,1-3.71-3.62,3.73,3.73,0,0,1,7.45-.25Z"/><path class="cls-9" d="M785.12,523.91a3.7,3.7,0,0,1-3.66-3.64,3.63,3.63,0,0,1,3.73-3.77,3.69,3.69,0,0,1,3.71,3.6A3.84,3.84,0,0,1,785.12,523.91Z"/><path class="cls-9" d="M750.17,520.24a3.7,3.7,0,0,1-3.63,3.67,3.86,3.86,0,0,1-3.81-3.78,3.72,3.72,0,0,1,7.44.11Z"/><path class="cls-9" d="M827.49,422.67a3.65,3.65,0,0,1-3.47,3.8,3.8,3.8,0,0,1-3.93-3.64,3.69,3.69,0,0,1,3.75-3.77A3.6,3.6,0,0,1,827.49,422.67Z"/><path class="cls-9" d="M716.59,557.19a3.68,3.68,0,0,1-3.5,3.78,3.88,3.88,0,0,1-3.93-3.68,3.8,3.8,0,0,1,3.8-3.77A3.7,3.7,0,0,1,716.59,557.19Z"/><path class="cls-9" d="M674.28,561a3.73,3.73,0,0,1,0-7.45,3.82,3.82,0,0,1,3.77,3.57A3.88,3.88,0,0,1,674.28,561Z"/><path class="cls-9" d="M823.93,516.5a3.71,3.71,0,0,1-.24,7.41,3.81,3.81,0,0,1-3.6-3.73A3.69,3.69,0,0,1,823.93,516.5Z"/><path class="cls-9" d="M669.07,516.51a3.68,3.68,0,0,1,3.78,3.75,3.8,3.8,0,0,1-3.66,3.67,3.88,3.88,0,0,1-3.79-3.81A3.66,3.66,0,0,1,669.07,516.51Z"/><path class="cls-9" d="M553.06,516.5a3.62,3.62,0,0,1,3.71,3.55,3.69,3.69,0,0,1-3.66,3.86,3.83,3.83,0,0,1-3.75-3.82A3.7,3.7,0,0,1,553.06,516.5Z"/><path class="cls-9" d="M711.52,520.24a3.76,3.76,0,0,1-3.7,3.68,3.66,3.66,0,0,1-3.67-3.9,3.6,3.6,0,0,1,3.78-3.52A3.65,3.65,0,0,1,711.52,520.24Z"/><path class="cls-9" d="M827.48,455.17a3.59,3.59,0,0,1-3.59,3.7,3.69,3.69,0,0,1-3.8-3.54,3.8,3.8,0,0,1,3.76-3.86A3.67,3.67,0,0,1,827.48,455.17Z"/><path class="cls-9" d="M635.43,593.43a3.78,3.78,0,0,1-3.6-3.94,3.72,3.72,0,0,1,7.43.48A3.75,3.75,0,0,1,635.43,593.43Z"/><path class="cls-9" d="M674.39,593.43a3.64,3.64,0,0,1-3.82-3.5,3.6,3.6,0,0,1,3.44-3.85,3.68,3.68,0,0,1,4,3.58A3.76,3.76,0,0,1,674.39,593.43Z"/><path class="cls-9" d="M712.87,586.08a3.6,3.6,0,0,1,3.73,3.57,3.65,3.65,0,0,1-3.79,3.78,3.75,3.75,0,0,1-3.64-3.72A3.65,3.65,0,0,1,712.87,586.08Z"/><path class="cls-9" d="M790.34,553.54a3.72,3.72,0,0,1,0,7.44,3.72,3.72,0,1,1,0-7.44Z"/><path class="cls-9" d="M558.1,586.07a3.63,3.63,0,0,1,3.83,3.48,3.72,3.72,0,1,1-7.43.23A3.65,3.65,0,0,1,558.1,586.07Z"/><path class="cls-9" d="M755.34,589.8a3.79,3.79,0,0,1-3.74,3.63,3.74,3.74,0,0,1-3.7-3.88,3.63,3.63,0,0,1,3.84-3.47A3.67,3.67,0,0,1,755.34,589.8Z"/><path class="cls-9" d="M793.9,589.81a3.66,3.66,0,1,1-7.31-.27,3.55,3.55,0,0,1,3.81-3.46A3.46,3.46,0,0,1,793.9,589.81Z"/><path class="cls-9" d="M828.92,586.07a3.64,3.64,0,0,1,3.74,3.57,3.72,3.72,0,1,1-7.44.05A3.64,3.64,0,0,1,828.92,586.07Z"/><path class="cls-9" d="M827.48,487.63A3.6,3.6,0,0,1,824,491.4a3.72,3.72,0,1,1-.14-7.43A3.66,3.66,0,0,1,827.48,487.63Z"/><path class="cls-9" d="M634.08,520.11a3.63,3.63,0,1,1-7.25,0,3.49,3.49,0,0,1,3.58-3.65A3.59,3.59,0,0,1,634.08,520.11Z"/><path class="cls-9" d="M600.57,589.8a3.66,3.66,0,1,1-7.31-.27,3.46,3.46,0,0,1,3.77-3.45A3.54,3.54,0,0,1,600.57,589.8Z"/><path class="cls-9" d="M596.77,561a3.72,3.72,0,1,1,3.74-3.55A3.64,3.64,0,0,1,596.77,561Z"/><path class="cls-5" d="M403.65,11a.59.59,0,0,0-.83.58c-.06,1-.09,2.07-.09,3.11q0,56.4,0,112.78c0,1,0,2.09-.06,3.12-.15,1.6-.66,2.16-2.24,2.26a40.2,40.2,0,0,1-5,0A136.93,136.93,0,0,1,357,125a133.35,133.35,0,0,1-32.4-17,137.33,137.33,0,0,1-18.9-16.22,139.83,139.83,0,0,1-21.07-28.45,136.05,136.05,0,0,1-16-49A88.28,88.28,0,0,1,267.84.5H399.08c1.44,0,2.9,0,4.11,1A93,93,0,0,0,403.65,11Z"/><path class="cls-13" d="M724.3.49h26.4C752.16,2,754.16,2,756,2.59a66.24,66.24,0,0,1,29.3,18.17,65,65,0,0,1,15.18,25.68c.47,1.51.6,3.36,2.55,4v1c-1.61,1.64-.51,3.61-.37,5.3.39,4.94.92,9.74.48,14.81a68.54,68.54,0,0,1-7.6,25.79A62.65,62.65,0,0,1,787,109.49a69.68,69.68,0,0,1-15.3,13.06,58.61,58.61,0,0,1-15.15,6.74,69.27,69.27,0,0,1-24.3,2.68,59.49,59.49,0,0,1-16.44-3.4,66.58,66.58,0,0,1-22.36-13.4A67.43,67.43,0,0,1,674,83.71c-1.27-4.46-1.52-9-2.36-13.51-.67-3.55.16-7,.38-10.53.54-8.73,3.31-16.73,7.25-24.45,3.38-6.64,8.16-12.12,13.41-17.32C700.08,10.56,709,5.79,718.78,2.65,720.68,2.05,722.73,1.9,724.3.49Z"/><path class="cls-13" d="M724.3.49c-.27,1.71-1.53,2.28-3,2.67a64.73,64.73,0,0,0-11.72,4.21,65.83,65.83,0,0,0-17.8,12.83,63.54,63.54,0,0,0-12.95,18,58.39,58.39,0,0,0-5.89,22.1,1,1,0,0,1,0,.24c-1.87,5.76-.14,11.44.74,17A60.56,60.56,0,0,0,688,108a68.65,68.65,0,0,0,14.14,12.49,63.43,63.43,0,0,0,26.74,10c13.66,1.87,26.58-.69,38.79-6.94a61.12,61.12,0,0,0,13.6-9.74,63.47,63.47,0,0,0,16.54-23.79,80.71,80.71,0,0,0,4.41-18.59c.59-4.31.08-8.38-.29-12.55-.13-1.44-.29-2.87-.5-4.29A2.65,2.65,0,0,1,803,51.36a96.72,96.72,0,0,1,1.41,13.35A65.75,65.75,0,0,1,790,107.48c-10.77,13.59-24.76,22-42,24.69a65.85,65.85,0,0,1-43.34-7.62A67.52,67.52,0,0,1,687,110a65.07,65.07,0,0,1-14.6-28.26,65.2,65.2,0,0,1,2.95-40.7,64.14,64.14,0,0,1,14.28-21.67,71,71,0,0,1,19-14,71.65,71.65,0,0,1,9.88-3.7A9.34,9.34,0,0,0,721.42.49Z"/><path class="cls-13" d="M803,50.4c-1.7,0-2.58-.91-3.07-2.47a62.61,62.61,0,0,0-6.65-15.07C784,18.26,771.36,7.91,754.4,3.34,752.77,2.9,751,2.6,750.7.49h2.88a9,9,0,0,0,2.85,1.22,61.8,61.8,0,0,1,22.19,11.46c10.87,8.92,18.91,19.82,23,33.43A22.87,22.87,0,0,0,803,50.4Z"/><path class="cls-9" d="M47.06,75.8c-2.08,0-4.16.06-6.24,0-1.79-.07-2.32-.56-2.35-2.33-.07-3.83-.08-7.67,0-11.51,0-1.88.57-2.39,2.52-2.42q6.1-.09,12.22,0c1.78,0,2.33.55,2.36,2.32.08,3.83.08,7.67,0,11.5,0,1.9-.58,2.37-2.51,2.44S49.05,75.8,47.06,75.8Z"/><path class="cls-9" d="M138.71,59.57c0,4.4,0,8.79,0,13.19,0,2.65-.39,3-3.1,3l-3.11.08c-2.63,0-5.27,0-7.9-.08s-3-.48-3-2.91q-.09-5.25,0-10.52c0-2.45.49-2.88,3-2.88C129.3,59.48,134,59.54,138.71,59.57Z"/><path class="cls-9" d="M74.67,75.81c-1.92,0-3.83,0-5.75,0-2.1-.06-2.62-.51-2.66-2.51q-.09-5.62,0-11.25c0-1.94.54-2.47,2.43-2.5q6-.11,12,0c1.88,0,2.41.57,2.44,2.5.07,3.74.07,7.5,0,11.24,0,1.91-.57,2.43-2.44,2.51s-4,0-6,0Z"/><path class="cls-9" d="M102.51,75.8c-2,0-4,.06-6,0s-2.43-.57-2.46-2.48c-.07-3.75-.08-7.5,0-11.25,0-2,.57-2.5,2.65-2.54q5.75-.09,11.49,0c2.2,0,2.66.51,2.7,2.73.06,3.59,0,7.19,0,10.77,0,2.3-.51,2.73-2.89,2.79-1.84,0-3.67,0-5.51,0Z"/><path class="cls-9" d="M157.7,75.79c-2,0-4,.06-6,0-1.79-.07-2.29-.52-2.32-2.32-.06-3.91-.06-7.82,0-11.73,0-1.66.54-2.17,2.18-2.2q6.34-.09,12.69,0c1.64,0,2.15.54,2.19,2.2q.1,5.86,0,11.73c0,1.8-.53,2.26-2.32,2.32C162,75.84,159.85,75.79,157.7,75.79Z"/><path class="cls-9" d="M185.79,75.8c-2,0-4,0-6,0s-2.6-.49-2.63-2.53q-.09-5.62,0-11.25c0-2,.5-2.48,2.64-2.51q6-.07,12,0c2,0,2.47.49,2.5,2.41.07,3.82.07,7.66,0,11.48,0,1.91-.53,2.33-2.51,2.39S187.78,75.8,185.79,75.8Z"/><path class="cls-9" d="M213.29,75.79c-2,0-4,.06-6,0-1.8-.07-2.3-.54-2.33-2.32-.06-3.9-.06-7.81,0-11.71,0-1.67.53-2.18,2.17-2.21q6.22-.11,12.44,0c1.66,0,2.17.53,2.21,2.18.08,3.9.08,7.81,0,11.71,0,1.78-.54,2.27-2.31,2.34-2.07.08-4.14,0-6.22,0Z"/><path class="cls-1" d="M737.53,99.46c-17.8-.1-33.72-13.73-33.61-33.57.12-20.41,16.69-33.17,33.4-33.27,17.32-.11,33.78,13.46,33.72,33.43C771,86.32,754.54,99.45,737.53,99.46Z"/></svg>